  0
SECTION
  2
BLOCKS
  0
ENDSEC
  0
SECTION
  2
ENTITIES
  0
LINE
  8
0
 10
-370.467
 20
495
 11
-258.645
 21
495
  0
LINE
  8
0
 10
-258.645
 20
495
 11
-258.645
 21
491
  0
LINE
  8
0
 10
-258.645
 20
491
 11
-248.645
 21
491
  0
LINE
  8
0
 10
-248.645
 20
491
 11
-248.645
 21
495
  0
LINE
  8
0
 10
-248.645
 20
495
 11
-136.822
 21
495
  0
LINE
  8
0
 10
-136.822
 20
495
 11
-136.822
 21
491
  0
LINE
  8
0
 10
-136.822
 20
491
 11
-126.822
 21
491
  0
LINE
  8
0
 10
-126.822
 20
491
 11
-126.822
 21
495
  0
LINE
  8
0
 10
-126.822
 20
495
 11
-15
 21
495
  0
LINE
  8
0
 10
-15
 20
495
 11
-15
 21
491
  0
LINE
  8
0
 10
-15
 20
491
 11
-5
 21
491
  0
LINE
  8
0
 10
-5
 20
491
 11
-5
 21
495
  0
LINE
  8
0
 10
-5
 20
495
 11
0
 21
495
  0
LINE
  8
0
 10
0
 20
495
 11
0
 21
625
  0
LINE
  8
0
 10
0
 20
625
 11
-5
 21
625
  0
LINE
  8
0
 10
-5
 20
625
 11
-5
 21
629
  0
LINE
  8
0
 10
-5
 20
629
 11
-15
 21
629
  0
LINE
  8
0
 10
-15
 20
629
 11
-15
 21
625
  0
LINE
  8
0
 10
-15
 20
625
 11
-126.822
 21
625
  0
LINE
  8
0
 10
-126.822
 20
625
 11
-126.822
 21
629
  0
LINE
  8
0
 10
-126.822
 20
629
 11
-136.822
 21
629
  0
LINE
  8
0
 10
-136.822
 20
629
 11
-136.822
 21
625
  0
LINE
  8
0
 10
-136.822
 20
625
 11
-248.645
 21
625
  0
LINE
  8
0
 10
-248.645
 20
625
 11
-248.645
 21
629
  0
LINE
  8
0
 10
-248.645
 20
629
 11
-258.645
 21
629
  0
LINE
  8
0
 10
-258.645
 20
629
 11
-258.645
 21
625
  0
LINE
  8
0
 10
-258.645
 20
625
 11
-370.467
 21
625
  0
LINE
  8
0
 10
-370.467
 20
625
 11
-370.467
 21
629
  0
LINE
  8
0
 10
-370.467
 20
629
 11
-380.467
 21
629
  0
LINE
  8
0
 10
-380.467
 20
629
 11
-380.467
 21
625
  0
LINE
  8
0
 10
-380.467
 20
625
 11
-385.467
 21
625
  0
LINE
  8
0
 10
-385.467
 20
625
 11
-385.467
 21
495
  0
LINE
  8
0
 10
-385.467
 20
495
 11
-380.467
 21
495
  0
LINE
  8
0
 10
-380.467
 20
495
 11
-380.467
 21
491
  0
LINE
  8
0
 10
-380.467
 20
491
 11
-370.467
 21
491
  0
LINE
  8
0
 10
-370.467
 20
491
 11
-370.467
 21
495
  0
LINE
  8
0
 10
-127.49
 20
355
 11
-72.5095
 21
355
  0
LINE
  8
0
 10
-72.5095
 20
355
 11
-72.5095
 21
351
  0
LINE
  8
0
 10
-72.5095
 20
351
 11
-62.5095
 21
351
  0
LINE
  8
0
 10
-62.5095
 20
351
 11
-62.5095
 21
355
  0
LINE
  8
0
 10
-62.5095
 20
355
 11
-51.2643
 21
355
  0
LINE
  8
0
 10
-51.2643
 20
355
 11
-51.2643
 21
390
  0
LINE
  8
0
 10
-51.2643
 20
390
 11
-42.604
 21
395
  0
LINE
  8
0
 10
-42.604
 20
395
 11
-42.604
 21
400
  0
LINE
  8
0
 10
-42.604
 20
400
 11
-59.9245
 21
410
  0
LINE
  8
0
 10
-59.9245
 20
410
 11
-59.9245
 21
415
  0
LINE
  8
0
 10
-59.9245
 20
415
 11
-42.604
 21
425
  0
LINE
  8
0
 10
-42.604
 20
425
 11
-42.604
 21
430
  0
LINE
  8
0
 10
-42.604
 20
430
 11
-59.9245
 21
440
  0
LINE
  8
0
 10
-59.9245
 20
440
 11
-59.9245
 21
445
  0
LINE
  8
0
 10
-59.9245
 20
445
 11
-51.2643
 21
450
  0
LINE
  8
0
 10
-51.2643
 20
450
 11
-51.2643
 21
485
  0
LINE
  8
0
 10
-51.2643
 20
485
 11
-62.5095
 21
485
  0
LINE
  8
0
 10
-62.5095
 20
485
 11
-62.5095
 21
489
  0
LINE
  8
0
 10
-62.5095
 20
489
 11
-72.5095
 21
489
  0
LINE
  8
0
 10
-72.5095
 20
489
 11
-72.5095
 21
485
  0
LINE
  8
0
 10
-72.5095
 20
485
 11
-127.49
 21
485
  0
LINE
  8
0
 10
-127.49
 20
485
 11
-127.49
 21
489
  0
LINE
  8
0
 10
-127.49
 20
489
 11
-137.49
 21
489
  0
LINE
  8
0
 10
-137.49
 20
489
 11
-137.49
 21
485
  0
LINE
  8
0
 10
-137.49
 20
485
 11
-152.736
 21
485
  0
LINE
  8
0
 10
-152.736
 20
485
 11
-152.736
 21
355
  0
LINE
  8
0
 10
-152.736
 20
355
 11
-137.49
 21
355
  0
LINE
  8
0
 10
-137.49
 20
355
 11
-137.49
 21
351
  0
LINE
  8
0
 10
-137.49
 20
351
 11
-127.49
 21
351
  0
LINE
  8
0
 10
-127.49
 20
351
 11
-127.49
 21
355
  0
LINE
  8
0
 10
72.5095
 20
355
 11
127.49
 21
355
  0
LINE
  8
0
 10
127.49
 20
355
 11
127.49
 21
351
  0
LINE
  8
0
 10
127.49
 20
351
 11
137.49
 21
351
  0
LINE
  8
0
 10
137.49
 20
351
 11
137.49
 21
355
  0
LINE
  8
0
 10
137.49
 20
355
 11
148.736
 21
355
  0
LINE
  8
0
 10
148.736
 20
355
 11
148.736
 21
390
  0
LINE
  8
0
 10
148.736
 20
390
 11
157.396
 21
395
  0
LINE
  8
0
 10
157.396
 20
395
 11
157.396
 21
400
  0
LINE
  8
0
 10
157.396
 20
400
 11
140.075
 21
410
  0
LINE
  8
0
 10
140.075
 20
410
 11
140.075
 21
415
  0
LINE
  8
0
 10
140.075
 20
415
 11
157.396
 21
425
  0
LINE
  8
0
 10
157.396
 20
425
 11
157.396
 21
430
  0
LINE
  8
0
 10
157.396
 20
430
 11
140.075
 21
440
  0
LINE
  8
0
 10
140.075
 20
440
 11
140.075
 21
445
  0
LINE
  8
0
 10
140.075
 20
445
 11
148.736
 21
450
  0
LINE
  8
0
 10
148.736
 20
450
 11
148.736
 21
485
  0
LINE
  8
0
 10
148.736
 20
485
 11
137.49
 21
485
  0
LINE
  8
0
 10
137.49
 20
485
 11
137.49
 21
489
  0
LINE
  8
0
 10
137.49
 20
489
 11
127.49
 21
489
  0
LINE
  8
0
 10
127.49
 20
489
 11
127.49
 21
485
  0
LINE
  8
0
 10
127.49
 20
485
 11
72.5095
 21
485
  0
LINE
  8
0
 10
72.5095
 20
485
 11
72.5095
 21
489
  0
LINE
  8
0
 10
72.5095
 20
489
 11
62.5095
 21
489
  0
LINE
  8
0
 10
62.5095
 20
489
 11
62.5095
 21
485
  0
LINE
  8
0
 10
62.5095
 20
485
 11
51.2643
 21
485
  0
LINE
  8
0
 10
51.2643
 20
485
 11
51.2643
 21
450
  0
LINE
  8
0
 10
51.2643
 20
450
 11
42.604
 21
445
  0
LINE
  8
0
 10
42.604
 20
445
 11
42.604
 21
440
  0
LINE
  8
0
 10
42.604
 20
440
 11
59.9245
 21
430
  0
LINE
  8
0
 10
59.9245
 20
430
 11
59.9245
 21
425
  0
LINE
  8
0
 10
59.9245
 20
425
 11
42.604
 21
415
  0
LINE
  8
0
 10
42.604
 20
415
 11
42.604
 21
410
  0
LINE
  8
0
 10
42.604
 20
410
 11
59.9245
 21
400
  0
LINE
  8
0
 10
59.9245
 20
400
 11
59.9245
 21
395
  0
LINE
  8
0
 10
59.9245
 20
395
 11
51.2643
 21
390
  0
LINE
  8
0
 10
51.2643
 20
390
 11
51.2643
 21
355
  0
LINE
  8
0
 10
51.2643
 20
355
 11
62.5095
 21
355
  0
LINE
  8
0
 10
62.5095
 20
355
 11
62.5095
 21
351
  0
LINE
  8
0
 10
62.5095
 20
351
 11
72.5095
 21
351
  0
LINE
  8
0
 10
72.5095
 20
351
 11
72.5095
 21
355
  0
LINE
  8
0
 10
236
 20
239.925
 11
241
 21
239.925
  0
LINE
  8
0
 10
241
 20
239.925
 11
251
 21
222.604
  0
LINE
  8
0
 10
251
 20
222.604
 11
256
 21
222.604
  0
LINE
  8
0
 10
256
 20
222.604
 11
266
 21
239.925
  0
LINE
  8
0
 10
266
 20
239.925
 11
271
 21
239.925
  0
LINE
  8
0
 10
271
 20
239.925
 11
281
 21
222.604
  0
LINE
  8
0
 10
281
 20
222.604
 11
286
 21
222.604
  0
LINE
  8
0
 10
286
 20
222.604
 11
296
 21
239.925
  0
LINE
  8
0
 10
296
 20
239.925
 11
301
 21
239.925
  0
LINE
  8
0
 10
301
 20
239.925
 11
311
 21
222.604
  0
LINE
  8
0
 10
311
 20
222.604
 11
316
 21
222.604
  0
LINE
  8
0
 10
316
 20
222.604
 11
326
 21
239.925
  0
LINE
  8
0
 10
326
 20
239.925
 11
331
 21
239.925
  0
LINE
  8
0
 10
331
 20
239.925
 11
341
 21
222.604
  0
LINE
  8
0
 10
341
 20
222.604
 11
346
 21
222.604
  0
LINE
  8
0
 10
346
 20
222.604
 11
351
 21
231.264
  0
LINE
  8
0
 10
351
 20
231.264
 11
508
 21
231.264
  0
LINE
  8
0
 10
508
 20
231.264
 11
508
 21
242.51
  0
LINE
  8
0
 10
508
 20
242.51
 11
504.1
 21
242.51
  0
LINE
  8
0
 10
504.1
 20
242.51
 11
504.1
 21
252.51
  0
LINE
  8
0
 10
504.1
 20
252.51
 11
508
 21
252.51
  0
LINE
  8
0
 10
508
 20
252.51
 11
508
 21
307.49
  0
LINE
  8
0
 10
508
 20
307.49
 11
504.1
 21
307.49
  0
LINE
  8
0
 10
504.1
 20
307.49
 11
504.1
 21
317.49
  0
LINE
  8
0
 10
504.1
 20
317.49
 11
508
 21
317.49
  0
LINE
  8
0
 10
508
 20
317.49
 11
508
 21
328.736
  0
LINE
  8
0
 10
508
 20
328.736
 11
351
 21
328.736
  0
LINE
  8
0
 10
351
 20
328.736
 11
346
 21
320.075
  0
LINE
  8
0
 10
346
 20
320.075
 11
341
 21
320.075
  0
LINE
  8
0
 10
341
 20
320.075
 11
331
 21
337.396
  0
LINE
  8
0
 10
331
 20
337.396
 11
326
 21
337.396
  0
LINE
  8
0
 10
326
 20
337.396
 11
316
 21
320.075
  0
LINE
  8
0
 10
316
 20
320.075
 11
311
 21
320.075
  0
LINE
  8
0
 10
311
 20
320.075
 11
301
 21
337.396
  0
LINE
  8
0
 10
301
 20
337.396
 11
296
 21
337.396
  0
LINE
  8
0
 10
296
 20
337.396
 11
286
 21
320.075
  0
LINE
  8
0
 10
286
 20
320.075
 11
281
 21
320.075
  0
LINE
  8
0
 10
281
 20
320.075
 11
271
 21
337.396
  0
LINE
  8
0
 10
271
 20
337.396
 11
266
 21
337.396
  0
LINE
  8
0
 10
266
 20
337.396
 11
256
 21
320.075
  0
LINE
  8
0
 10
256
 20
320.075
 11
251
 21
320.075
  0
LINE
  8
0
 10
251
 20
320.075
 11
241
 21
337.396
  0
LINE
  8
0
 10
241
 20
337.396
 11
236
 21
337.396
  0
LINE
  8
0
 10
236
 20
337.396
 11
226
 21
320.075
  0
LINE
  8
0
 10
226
 20
320.075
 11
221
 21
320.075
  0
LINE
  8
0
 10
221
 20
320.075
 11
211
 21
337.396
  0
LINE
  8
0
 10
211
 20
337.396
 11
206
 21
337.396
  0
LINE
  8
0
 10
206
 20
337.396
 11
201
 21
328.736
  0
LINE
  8
0
 10
201
 20
328.736
 11
44
 21
328.736
  0
LINE
  8
0
 10
44
 20
328.736
 11
44
 21
317.49
  0
LINE
  8
0
 10
44
 20
317.49
 11
47.9
 21
317.49
  0
LINE
  8
0
 10
47.9
 20
317.49
 11
47.9
 21
307.49
  0
LINE
  8
0
 10
47.9
 20
307.49
 11
44
 21
307.49
  0
LINE
  8
0
 10
44
 20
307.49
 11
44
 21
252.51
  0
LINE
  8
0
 10
44
 20
252.51
 11
47.9
 21
252.51
  0
LINE
  8
0
 10
47.9
 20
252.51
 11
47.9
 21
242.51
  0
LINE
  8
0
 10
47.9
 20
242.51
 11
44
 21
242.51
  0
LINE
  8
0
 10
44
 20
242.51
 11
44
 21
231.264
  0
LINE
  8
0
 10
44
 20
231.264
 11
201
 21
231.264
  0
LINE
  8
0
 10
201
 20
231.264
 11
206
 21
239.925
  0
LINE
  8
0
 10
206
 20
239.925
 11
211
 21
239.925
  0
LINE
  8
0
 10
211
 20
239.925
 11
221
 21
222.604
  0
LINE
  8
0
 10
221
 20
222.604
 11
226
 21
222.604
  0
LINE
  8
0
 10
226
 20
222.604
 11
236
 21
239.925
  0
LINE
  8
0
 10
122.807
 20
293.308
 11
123.155
 21
297.292
  0
LINE
  8
0
 10
123.155
 20
297.292
 11
133.117
 21
296.421
  0
LINE
  8
0
 10
133.117
 20
296.421
 11
132.769
 21
292.436
  0
LINE
  8
0
 10
132.769
 20
292.436
 11
122.807
 21
293.308
  0
LINE
  8
0
 10
244.165
 20
282.69
 11
244.514
 21
286.675
  0
LINE
  8
0
 10
244.514
 20
286.675
 11
254.476
 21
285.803
  0
LINE
  8
0
 10
254.476
 20
285.803
 11
254.127
 21
281.818
  0
LINE
  8
0
 10
254.127
 20
281.818
 11
244.165
 21
282.69
  0
LINE
  8
0
 10
365.524
 20
272.073
 11
365.873
 21
276.057
  0
LINE
  8
0
 10
365.873
 20
276.057
 11
375.835
 21
275.186
  0
LINE
  8
0
 10
375.835
 20
275.186
 11
375.486
 21
271.201
  0
LINE
  8
0
 10
375.486
 20
271.201
 11
365.524
 21
272.073
  0
LINE
  8
0
 10
486.883
 20
261.455
 11
487.231
 21
265.44
  0
LINE
  8
0
 10
487.231
 20
265.44
 11
497.193
 21
264.568
  0
LINE
  8
0
 10
497.193
 20
264.568
 11
496.845
 21
260.583
  0
LINE
  8
0
 10
496.845
 20
260.583
 11
486.883
 21
261.455
  0
LINE
  8
0
 10
-316
 20
239.925
 11
-311
 21
239.925
  0
LINE
  8
0
 10
-311
 20
239.925
 11
-301
 21
222.604
  0
LINE
  8
0
 10
-301
 20
222.604
 11
-296
 21
222.604
  0
LINE
  8
0
 10
-296
 20
222.604
 11
-286
 21
239.925
  0
LINE
  8
0
 10
-286
 20
239.925
 11
-281
 21
239.925
  0
LINE
  8
0
 10
-281
 20
239.925
 11
-271
 21
222.604
  0
LINE
  8
0
 10
-271
 20
222.604
 11
-266
 21
222.604
  0
LINE
  8
0
 10
-266
 20
222.604
 11
-256
 21
239.925
  0
LINE
  8
0
 10
-256
 20
239.925
 11
-251
 21
239.925
  0
LINE
  8
0
 10
-251
 20
239.925
 11
-241
 21
222.604
  0
LINE
  8
0
 10
-241
 20
222.604
 11
-236
 21
222.604
  0
LINE
  8
0
 10
-236
 20
222.604
 11
-226
 21
239.925
  0
LINE
  8
0
 10
-226
 20
239.925
 11
-221
 21
239.925
  0
LINE
  8
0
 10
-221
 20
239.925
 11
-211
 21
222.604
  0
LINE
  8
0
 10
-211
 20
222.604
 11
-206
 21
222.604
  0
LINE
  8
0
 10
-206
 20
222.604
 11
-201
 21
231.264
  0
LINE
  8
0
 10
-201
 20
231.264
 11
-44
 21
231.264
  0
LINE
  8
0
 10
-44
 20
231.264
 11
-44
 21
242.51
  0
LINE
  8
0
 10
-44
 20
242.51
 11
-47.9
 21
242.51
  0
LINE
  8
0
 10
-47.9
 20
242.51
 11
-47.9
 21
252.51
  0
LINE
  8
0
 10
-47.9
 20
252.51
 11
-44
 21
252.51
  0
LINE
  8
0
 10
-44
 20
252.51
 11
-44
 21
307.49
  0
LINE
  8
0
 10
-44
 20
307.49
 11
-47.9
 21
307.49
  0
LINE
  8
0
 10
-47.9
 20
307.49
 11
-47.9
 21
317.49
  0
LINE
  8
0
 10
-47.9
 20
317.49
 11
-44
 21
317.49
  0
LINE
  8
0
 10
-44
 20
317.49
 11
-44
 21
328.736
  0
LINE
  8
0
 10
-44
 20
328.736
 11
-201
 21
328.736
  0
LINE
  8
0
 10
-201
 20
328.736
 11
-206
 21
320.075
  0
LINE
  8
0
 10
-206
 20
320.075
 11
-211
 21
320.075
  0
LINE
  8
0
 10
-211
 20
320.075
 11
-221
 21
337.396
  0
LINE
  8
0
 10
-221
 20
337.396
 11
-226
 21
337.396
  0
LINE
  8
0
 10
-226
 20
337.396
 11
-236
 21
320.075
  0
LINE
  8
0
 10
-236
 20
320.075
 11
-241
 21
320.075
  0
LINE
  8
0
 10
-241
 20
320.075
 11
-251
 21
337.396
  0
LINE
  8
0
 10
-251
 20
337.396
 11
-256
 21
337.396
  0
LINE
  8
0
 10
-256
 20
337.396
 11
-266
 21
320.075
  0
LINE
  8
0
 10
-266
 20
320.075
 11
-271
 21
320.075
  0
LINE
  8
0
 10
-271
 20
320.075
 11
-281
 21
337.396
  0
LINE
  8
0
 10
-281
 20
337.396
 11
-286
 21
337.396
  0
LINE
  8
0
 10
-286
 20
337.396
 11
-296
 21
320.075
  0
LINE
  8
0
 10
-296
 20
320.075
 11
-301
 21
320.075
  0
LINE
  8
0
 10
-301
 20
320.075
 11
-311
 21
337.396
  0
LINE
  8
0
 10
-311
 20
337.396
 11
-316
 21
337.396
  0
LINE
  8
0
 10
-316
 20
337.396
 11
-326
 21
320.075
  0
LINE
  8
0
 10
-326
 20
320.075
 11
-331
 21
320.075
  0
LINE
  8
0
 10
-331
 20
320.075
 11
-341
 21
337.396
  0
LINE
  8
0
 10
-341
 20
337.396
 11
-346
 21
337.396
  0
LINE
  8
0
 10
-346
 20
337.396
 11
-351
 21
328.736
  0
LINE
  8
0
 10
-351
 20
328.736
 11
-508
 21
328.736
  0
LINE
  8
0
 10
-508
 20
328.736
 11
-508
 21
317.49
  0
LINE
  8
0
 10
-508
 20
317.49
 11
-504.1
 21
317.49
  0
LINE
  8
0
 10
-504.1
 20
317.49
 11
-504.1
 21
307.49
  0
LINE
  8
0
 10
-504.1
 20
307.49
 11
-508
 21
307.49
  0
LINE
  8
0
 10
-508
 20
307.49
 11
-508
 21
252.51
  0
LINE
  8
0
 10
-508
 20
252.51
 11
-504.1
 21
252.51
  0
LINE
  8
0
 10
-504.1
 20
252.51
 11
-504.1
 21
242.51
  0
LINE
  8
0
 10
-504.1
 20
242.51
 11
-508
 21
242.51
  0
LINE
  8
0
 10
-508
 20
242.51
 11
-508
 21
231.264
  0
LINE
  8
0
 10
-508
 20
231.264
 11
-351
 21
231.264
  0
LINE
  8
0
 10
-351
 20
231.264
 11
-346
 21
239.925
  0
LINE
  8
0
 10
-346
 20
239.925
 11
-341
 21
239.925
  0
LINE
  8
0
 10
-341
 20
239.925
 11
-331
 21
222.604
  0
LINE
  8
0
 10
-331
 20
222.604
 11
-326
 21
222.604
  0
LINE
  8
0
 10
-326
 20
222.604
 11
-316
 21
239.925
  0
LINE
  8
0
 10
-135.117
 20
298.545
 11
-125.155
 21
299.417
  0
LINE
  8
0
 10
-125.155
 20
299.417
 11
-124.807
 21
295.432
  0
LINE
  8
0
 10
-124.807
 20
295.432
 11
-134.769
 21
294.56
  0
LINE
  8
0
 10
-134.769
 20
294.56
 11
-135.117
 21
298.545
  0
LINE
  8
0
 10
-256.476
 20
287.927
 11
-246.514
 21
288.799
  0
LINE
  8
0
 10
-246.514
 20
288.799
 11
-246.165
 21
284.814
  0
LINE
  8
0
 10
-246.165
 20
284.814
 11
-256.127
 21
283.943
  0
LINE
  8
0
 10
-256.127
 20
283.943
 11
-256.476
 21
287.927
  0
LINE
  8
0
 10
-377.835
 20
277.31
 11
-367.873
 21
278.182
  0
LINE
  8
0
 10
-367.873
 20
278.182
 11
-367.524
 21
274.197
  0
LINE
  8
0
 10
-367.524
 20
274.197
 11
-377.486
 21
273.325
  0
LINE
  8
0
 10
-377.486
 20
273.325
 11
-377.835
 21
277.31
  0
LINE
  8
0
 10
-499.193
 20
266.692
 11
-489.231
 21
267.564
  0
LINE
  8
0
 10
-489.231
 20
267.564
 11
-488.883
 21
263.579
  0
LINE
  8
0
 10
-488.883
 20
263.579
 11
-498.845
 21
262.708
  0
LINE
  8
0
 10
-498.845
 20
262.708
 11
-499.193
 21
266.692
  0
LINE
  8
0
 10
-442.742
 20
75
 11
-306.828
 21
75
  0
LINE
  8
0
 10
-306.828
 20
75
 11
-306.828
 21
71
  0
LINE
  8
0
 10
-306.828
 20
71
 11
-296.828
 21
71
  0
LINE
  8
0
 10
-296.828
 20
71
 11
-296.828
 21
75
  0
LINE
  8
0
 10
-296.828
 20
75
 11
-160.914
 21
75
  0
LINE
  8
0
 10
-160.914
 20
75
 11
-160.914
 21
71
  0
LINE
  8
0
 10
-160.914
 20
71
 11
-150.914
 21
71
  0
LINE
  8
0
 10
-150.914
 20
71
 11
-150.914
 21
75
  0
LINE
  8
0
 10
-150.914
 20
75
 11
-15
 21
75
  0
LINE
  8
0
 10
-15
 20
75
 11
-15
 21
71
  0
LINE
  8
0
 10
-15
 20
71
 11
-5
 21
71
  0
LINE
  8
0
 10
-5
 20
71
 11
-5
 21
75
  0
LINE
  8
0
 10
-5
 20
75
 11
0
 21
75
  0
LINE
  8
0
 10
0
 20
75
 11
0
 21
205
  0
LINE
  8
0
 10
0
 20
205
 11
-5
 21
205
  0
LINE
  8
0
 10
-5
 20
205
 11
-5
 21
209
  0
LINE
  8
0
 10
-5
 20
209
 11
-15
 21
209
  0
LINE
  8
0
 10
-15
 20
209
 11
-15
 21
205
  0
LINE
  8
0
 10
-15
 20
205
 11
-150.914
 21
205
  0
LINE
  8
0
 10
-150.914
 20
205
 11
-150.914
 21
209
  0
LINE
  8
0
 10
-150.914
 20
209
 11
-160.914
 21
209
  0
LINE
  8
0
 10
-160.914
 20
209
 11
-160.914
 21
205
  0
LINE
  8
0
 10
-160.914
 20
205
 11
-296.828
 21
205
  0
LINE
  8
0
 10
-296.828
 20
205
 11
-296.828
 21
209
  0
LINE
  8
0
 10
-296.828
 20
209
 11
-306.828
 21
209
  0
LINE
  8
0
 10
-306.828
 20
209
 11
-306.828
 21
205
  0
LINE
  8
0
 10
-306.828
 20
205
 11
-442.742
 21
205
  0
LINE
  8
0
 10
-442.742
 20
205
 11
-442.742
 21
209
  0
LINE
  8
0
 10
-442.742
 20
209
 11
-452.742
 21
209
  0
LINE
  8
0
 10
-452.742
 20
209
 11
-452.742
 21
205
  0
LINE
  8
0
 10
-452.742
 20
205
 11
-457.742
 21
205
  0
LINE
  8
0
 10
-457.742
 20
205
 11
-457.742
 21
75
  0
LINE
  8
0
 10
-457.742
 20
75
 11
-452.742
 21
75
  0
LINE
  8
0
 10
-452.742
 20
75
 11
-452.742
 21
71
  0
LINE
  8
0
 10
-452.742
 20
71
 11
-442.742
 21
71
  0
LINE
  8
0
 10
-442.742
 20
71
 11
-442.742
 21
75
  0
LINE
  8
0
 10
-85.9989
 20
166
 11
-85.9989
 21
174
  0
LINE
  8
0
 10
-85.9989
 20
174
 11
-4
 21
174
  0
LINE
  8
0
 10
-4
 20
174
 11
-4
 21
166
  0
LINE
  8
0
 10
-4
 20
166
 11
-85.9989
 21
166
  0
LINE
  8
0
 10
-85.9989
 20
106
 11
-85.9989
 21
114
  0
LINE
  8
0
 10
-85.9989
 20
114
 11
-4
 21
114
  0
LINE
  8
0
 10
-4
 20
114
 11
-4
 21
106
  0
LINE
  8
0
 10
-4
 20
106
 11
-85.9989
 21
106
  0
LINE
  8
0
 10
80.1075
 20
100.095
 11
80.4198
 21
100.988
  0
LINE
  8
0
 10
80.4198
 20
100.988
 11
80.6448
 21
101.778
  0
LINE
  8
0
 10
80.6448
 20
101.778
 11
80.7959
 21
102.457
  0
LINE
  8
0
 10
80.7959
 20
102.457
 11
80.8869
 21
103.021
  0
LINE
  8
0
 10
80.8869
 20
103.021
 11
80.9322
 21
103.464
  0
LINE
  8
0
 10
80.9322
 20
103.464
 11
80.9309
 21
103.476
  0
LINE
  8
0
 10
80.9309
 20
103.476
 11
82.2735
 21
103.646
  0
LINE
  8
0
 10
82.2735
 20
103.646
 11
82.2752
 21
103.634
  0
LINE
  8
0
 10
82.2752
 20
103.634
 11
82.4293
 21
103.216
  0
LINE
  8
0
 10
82.4293
 20
103.216
 11
82.6576
 21
102.693
  0
LINE
  8
0
 10
82.6576
 20
102.693
 11
82.9729
 21
102.072
  0
LINE
  8
0
 10
82.9729
 20
102.072
 11
83.3873
 21
101.363
  0
LINE
  8
0
 10
83.3873
 20
101.363
 11
83.9119
 21
100.576
  0
LINE
  8
0
 10
83.9119
 20
100.576
 11
85.0844
 21
100.799
  0
LINE
  8
0
 10
85.0844
 20
100.799
 11
85.2823
 21
101.725
  0
LINE
  8
0
 10
85.2823
 20
101.725
 11
85.4065
 21
102.536
  0
LINE
  8
0
 10
85.4065
 20
102.536
 11
85.4713
 21
103.229
  0
LINE
  8
0
 10
85.4713
 20
103.229
 11
85.491
 21
103.8
  0
LINE
  8
0
 10
85.491
 20
103.8
 11
85.4803
 21
104.245
  0
LINE
  8
0
 10
85.4803
 20
104.245
 11
85.4776
 21
104.257
  0
LINE
  8
0
 10
85.4776
 20
104.257
 11
86.7883
 21
104.593
  0
LINE
  8
0
 10
86.7883
 20
104.593
 11
86.7915
 21
104.582
  0
LINE
  8
0
 10
86.7915
 20
104.582
 11
86.9968
 21
104.186
  0
LINE
  8
0
 10
86.9968
 20
104.186
 11
87.2889
 21
103.696
  0
LINE
  8
0
 10
87.2889
 20
103.696
 11
87.6795
 21
103.12
  0
LINE
  8
0
 10
87.6795
 20
103.12
 11
88.1794
 21
102.469
  0
LINE
  8
0
 10
88.1794
 20
102.469
 11
88.7985
 21
101.753
  0
LINE
  8
0
 10
88.7985
 20
101.753
 11
89.9338
 21
102.122
  0
LINE
  8
0
 10
89.9338
 20
102.122
 11
90.0141
 21
103.065
  0
LINE
  8
0
 10
90.0141
 20
103.065
 11
90.0356
 21
103.885
  0
LINE
  8
0
 10
90.0356
 20
103.885
 11
90.0131
 21
104.581
  0
LINE
  8
0
 10
90.0131
 20
104.581
 11
89.9611
 21
105.15
  0
LINE
  8
0
 10
89.9611
 20
105.15
 11
89.8947
 21
105.59
  0
LINE
  8
0
 10
89.8947
 20
105.59
 11
89.8905
 21
105.601
  0
LINE
  8
0
 10
89.8905
 20
105.601
 11
91.1488
 21
106.099
  0
LINE
  8
0
 10
91.1488
 20
106.099
 11
91.1534
 21
106.088
  0
LINE
  8
0
 10
91.1534
 20
106.088
 11
91.4066
 21
105.722
  0
LINE
  8
0
 10
91.4066
 20
105.722
 11
91.7578
 21
105.272
  0
LINE
  8
0
 10
91.7578
 20
105.272
 11
92.2175
 21
104.749
  0
LINE
  8
0
 10
92.2175
 20
104.749
 11
92.7952
 21
104.166
  0
LINE
  8
0
 10
92.7952
 20
104.166
 11
93.4991
 21
103.533
  0
LINE
  8
0
 10
93.4991
 20
103.533
 11
94.5792
 21
104.042
  0
LINE
  8
0
 10
94.5792
 20
104.042
 11
94.5407
 21
104.987
  0
LINE
  8
0
 10
94.5407
 20
104.987
 11
94.4592
 21
105.804
  0
LINE
  8
0
 10
94.4592
 20
105.804
 11
94.3496
 21
106.491
  0
LINE
  8
0
 10
94.3496
 20
106.491
 11
94.2269
 21
107.049
  0
LINE
  8
0
 10
94.2269
 20
107.049
 11
94.1057
 21
107.478
  0
LINE
  8
0
 10
94.1057
 20
107.478
 11
94.1002
 21
107.488
  0
LINE
  8
0
 10
94.1002
 20
107.488
 11
95.2861
 21
108.14
  0
LINE
  8
0
 10
95.2861
 20
108.14
 11
95.292
 21
108.13
  0
LINE
  8
0
 10
95.292
 20
108.13
 11
95.5892
 21
107.798
  0
LINE
  8
0
 10
95.5892
 20
107.798
 11
95.994
 21
107.396
  0
LINE
  8
0
 10
95.994
 20
107.396
 11
96.5156
 21
106.935
  0
LINE
  8
0
 10
96.5156
 20
106.935
 11
97.1618
 21
106.428
  0
LINE
  8
0
 10
97.1618
 20
106.428
 11
97.9395
 21
105.889
  0
LINE
  8
0
 10
97.9395
 20
105.889
 11
98.9474
 21
106.529
  0
LINE
  8
0
 10
98.9474
 20
106.529
 11
98.7907
 21
107.462
  0
LINE
  8
0
 10
98.7907
 20
107.462
 11
98.6074
 21
108.262
  0
LINE
  8
0
 10
98.6074
 20
108.262
 11
98.4125
 21
108.93
  0
LINE
  8
0
 10
98.4125
 20
108.93
 11
98.2209
 21
109.468
  0
LINE
  8
0
 10
98.2209
 20
109.468
 11
98.0469
 21
109.878
  0
LINE
  8
0
 10
98.0469
 20
109.878
 11
98.0401
 21
109.888
  0
LINE
  8
0
 10
98.0401
 20
109.888
 11
99.135
 21
110.683
  0
LINE
  8
0
 10
99.135
 20
110.683
 11
99.1421
 21
110.674
  0
LINE
  8
0
 10
99.1421
 20
110.674
 11
99.4786
 21
110.382
  0
LINE
  8
0
 10
99.4786
 20
110.382
 11
99.9307
 21
110.033
  0
LINE
  8
0
 10
99.9307
 20
110.033
 11
100.506
 21
109.642
  0
LINE
  8
0
 10
100.506
 20
109.642
 11
101.21
 21
109.22
  0
LINE
  8
0
 10
101.21
 20
109.22
 11
102.05
 21
108.783
  0
LINE
  8
0
 10
102.05
 20
108.783
 11
102.969
 21
109.543
  0
LINE
  8
0
 10
102.969
 20
109.543
 11
102.697
 21
110.45
  0
LINE
  8
0
 10
102.697
 20
110.45
 11
102.415
 21
111.221
  0
LINE
  8
0
 10
102.415
 20
111.221
 11
102.138
 21
111.859
  0
LINE
  8
0
 10
102.138
 20
111.859
 11
101.88
 21
112.369
  0
LINE
  8
0
 10
101.88
 20
112.369
 11
101.656
 21
112.754
  0
LINE
  8
0
 10
101.656
 20
112.754
 11
101.648
 21
112.763
  0
LINE
  8
0
 10
101.648
 20
112.763
 11
102.635
 21
113.689
  0
LINE
  8
0
 10
102.635
 20
113.689
 11
102.643
 21
113.68
  0
LINE
  8
0
 10
102.643
 20
113.68
 11
103.013
 21
113.433
  0
LINE
  8
0
 10
103.013
 20
113.433
 11
103.506
 21
113.144
  0
LINE
  8
0
 10
103.506
 20
113.144
 11
104.125
 21
112.827
  0
LINE
  8
0
 10
104.125
 20
112.827
 11
104.877
 21
112.497
  0
LINE
  8
0
 10
104.877
 20
112.497
 11
105.765
 21
112.168
  0
LINE
  8
0
 10
105.765
 20
112.168
 11
106.582
 21
113.039
  0
LINE
  8
0
 10
106.582
 20
113.039
 11
106.198
 21
113.903
  0
LINE
  8
0
 10
106.198
 20
113.903
 11
105.821
 21
114.633
  0
LINE
  8
0
 10
105.821
 20
114.633
 11
105.466
 21
115.232
  0
LINE
  8
0
 10
105.466
 20
115.232
 11
105.147
 21
115.705
  0
LINE
  8
0
 10
105.147
 20
115.705
 11
104.877
 21
116.059
  0
LINE
  8
0
 10
104.877
 20
116.059
 11
104.868
 21
116.067
  0
LINE
  8
0
 10
104.868
 20
116.067
 11
105.73
 21
117.11
  0
LINE
  8
0
 10
105.73
 20
117.11
 11
105.74
 21
117.102
  0
LINE
  8
0
 10
105.74
 20
117.102
 11
106.138
 21
116.903
  0
LINE
  8
0
 10
106.138
 20
116.903
 11
106.663
 21
116.678
  0
LINE
  8
0
 10
106.663
 20
116.678
 11
107.317
 21
116.441
  0
LINE
  8
0
 10
107.317
 20
116.441
 11
108.105
 21
116.208
  0
LINE
  8
0
 10
108.105
 20
116.208
 11
109.026
 21
115.993
  0
LINE
  8
0
 10
109.026
 20
115.993
 11
109.728
 21
116.959
  0
LINE
  8
0
 10
109.728
 20
116.959
 11
109.238
 21
117.769
  0
LINE
  8
0
 10
109.238
 20
117.769
 11
108.773
 21
118.446
  0
LINE
  8
0
 10
108.773
 20
118.446
 11
108.346
 21
118.995
  0
LINE
  8
0
 10
108.346
 20
118.995
 11
107.97
 21
119.424
  0
LINE
  8
0
 10
107.97
 20
119.424
 11
107.657
 21
119.742
  0
LINE
  8
0
 10
107.657
 20
119.742
 11
107.648
 21
119.748
  0
LINE
  8
0
 10
107.648
 20
119.748
 11
108.373
 21
120.891
  0
LINE
  8
0
 10
108.373
 20
120.891
 11
108.383
 21
120.885
  0
LINE
  8
0
 10
108.383
 20
120.885
 11
108.803
 21
120.737
  0
LINE
  8
0
 10
108.803
 20
120.737
 11
109.352
 21
120.579
  0
LINE
  8
0
 10
109.352
 20
120.579
 11
110.031
 21
120.427
  0
LINE
  8
0
 10
110.031
 20
120.427
 11
110.841
 21
120.294
  0
LINE
  8
0
 10
110.841
 20
120.294
 11
111.782
 21
120.197
  0
LINE
  8
0
 10
111.782
 20
120.197
 11
112.357
 21
121.243
  0
LINE
  8
0
 10
112.357
 20
121.243
 11
111.771
 21
121.985
  0
LINE
  8
0
 10
111.771
 20
121.985
 11
111.224
 21
122.598
  0
LINE
  8
0
 10
111.224
 20
122.598
 11
110.732
 21
123.09
  0
LINE
  8
0
 10
110.732
 20
123.09
 11
110.305
 21
123.468
  0
LINE
  8
0
 10
110.305
 20
123.468
 11
109.955
 21
123.744
  0
LINE
  8
0
 10
109.955
 20
123.744
 11
109.944
 21
123.749
  0
LINE
  8
0
 10
109.944
 20
123.749
 11
110.52
 21
124.974
  0
LINE
  8
0
 10
110.52
 20
124.974
 11
110.531
 21
124.969
  0
LINE
  8
0
 10
110.531
 20
124.969
 11
110.967
 21
124.875
  0
LINE
  8
0
 10
110.967
 20
124.875
 11
111.531
 21
124.788
  0
LINE
  8
0
 10
111.531
 20
124.788
 11
112.224
 21
124.721
  0
LINE
  8
0
 10
112.224
 20
124.721
 11
113.044
 21
124.691
  0
LINE
  8
0
 10
113.044
 20
124.691
 11
113.99
 21
124.712
  0
LINE
  8
0
 10
113.99
 20
124.712
 11
114.43
 21
125.822
  0
LINE
  8
0
 10
114.43
 20
125.822
 11
113.754
 21
126.485
  0
LINE
  8
0
 10
113.754
 20
126.485
 11
113.136
 21
127.025
  0
LINE
  8
0
 10
113.136
 20
127.025
 11
112.585
 21
127.451
  0
LINE
  8
0
 10
112.585
 20
127.451
 11
112.114
 21
127.773
  0
LINE
  8
0
 10
112.114
 20
127.773
 11
111.732
 21
128.003
  0
LINE
  8
0
 10
111.732
 20
128.003
 11
111.721
 21
128.007
  0
LINE
  8
0
 10
111.721
 20
128.007
 11
112.139
 21
129.294
  0
LINE
  8
0
 10
112.139
 20
129.294
 11
112.151
 21
129.29
  0
LINE
  8
0
 10
112.151
 20
129.29
 11
112.594
 21
129.252
  0
LINE
  8
0
 10
112.594
 20
129.252
 11
113.165
 21
129.235
  0
LINE
  8
0
 10
113.165
 20
129.235
 11
113.861
 21
129.257
  0
LINE
  8
0
 10
113.861
 20
129.257
 11
114.679
 21
129.33
  0
LINE
  8
0
 10
114.679
 20
129.33
 11
115.615
 21
129.469
  0
LINE
  8
0
 10
115.615
 20
129.469
 11
115.911
 21
130.625
  0
LINE
  8
0
 10
115.911
 20
130.625
 11
115.158
 21
131.198
  0
LINE
  8
0
 10
115.158
 20
131.198
 11
114.477
 21
131.656
  0
LINE
  8
0
 10
114.477
 20
131.656
 11
113.877
 21
132.01
  0
LINE
  8
0
 10
113.877
 20
132.01
 11
113.37
 21
132.271
  0
LINE
  8
0
 10
113.37
 20
132.271
 11
112.962
 21
132.451
  0
LINE
  8
0
 10
112.962
 20
132.451
 11
112.95
 21
132.453
  0
LINE
  8
0
 10
112.95
 20
132.453
 11
113.204
 21
133.782
  0
LINE
  8
0
 10
113.204
 20
133.782
 11
113.216
 21
133.78
  0
LINE
  8
0
 10
113.216
 20
133.78
 11
113.661
 21
133.798
  0
LINE
  8
0
 10
113.661
 20
133.798
 11
114.229
 21
133.853
  0
LINE
  8
0
 10
114.229
 20
133.853
 11
114.917
 21
133.961
  0
LINE
  8
0
 10
114.917
 20
133.961
 11
115.719
 21
134.136
  0
LINE
  8
0
 10
115.719
 20
134.136
 11
116.63
 21
134.392
  0
LINE
  8
0
 10
116.63
 20
134.392
 11
116.78
 21
135.576
  0
LINE
  8
0
 10
116.78
 20
135.576
 11
115.961
 21
136.05
  0
LINE
  8
0
 10
115.961
 20
136.05
 11
115.227
 21
136.419
  0
LINE
  8
0
 10
115.227
 20
136.419
 11
114.588
 21
136.695
  0
LINE
  8
0
 10
114.588
 20
136.695
 11
114.052
 21
136.89
  0
LINE
  8
0
 10
114.052
 20
136.89
 11
113.625
 21
137.018
  0
LINE
  8
0
 10
113.625
 20
137.018
 11
113.613
 21
137.018
  0
LINE
  8
0
 10
113.613
 20
137.018
 11
113.698
 21
138.369
  0
LINE
  8
0
 10
113.698
 20
138.369
 11
113.71
 21
138.369
  0
LINE
  8
0
 10
113.71
 20
138.369
 11
114.149
 21
138.442
  0
LINE
  8
0
 10
114.149
 20
138.442
 11
114.706
 21
138.568
  0
LINE
  8
0
 10
114.706
 20
138.568
 11
115.374
 21
138.761
  0
LINE
  8
0
 10
115.374
 20
138.761
 11
116.148
 21
139.035
  0
LINE
  8
0
 10
116.148
 20
139.035
 11
117.02
 21
139.403
  0
LINE
  8
0
 10
117.02
 20
139.403
 11
117.02
 21
140.597
  0
LINE
  8
0
 10
117.02
 20
140.597
 11
116.148
 21
140.965
  0
LINE
  8
0
 10
116.148
 20
140.965
 11
115.735
 21
141.111
  0
LINE
  8
0
 10
115.735
 20
141.111
 11
115.731
 21
141.108
  0
LINE
  8
0
 10
115.731
 20
141.108
 11
109.233
 21
139.122
  0
LINE
  8
0
 10
109.233
 20
139.122
 11
102.465
 21
138.53
  0
LINE
  8
0
 10
102.465
 20
138.53
 11
95.7209
 21
139.358
  0
LINE
  8
0
 10
95.7209
 20
139.358
 11
89.2967
 21
141.57
  0
LINE
  8
0
 10
89.2967
 20
141.57
 11
83.4728
 21
145.069
  0
LINE
  8
0
 10
83.4728
 20
145.069
 11
78.5037
 21
149.703
  0
LINE
  8
0
 10
78.5037
 20
149.703
 11
74.6066
 21
155.268
  0
LINE
  8
0
 10
74.6066
 20
155.268
 11
71.9519
 21
161.523
  0
LINE
  8
0
 10
71.9519
 20
161.523
 11
70.6554
 21
168.192
  0
LINE
  8
0
 10
70.6554
 20
168.192
 11
70.774
 21
174.986
  0
LINE
  8
0
 10
70.774
 20
174.986
 11
71.3195
 21
177.348
  0
LINE
  8
0
 10
71.3195
 20
177.348
 11
71.0248
 21
177.928
  0
LINE
  8
0
 10
71.0248
 20
177.928
 11
70.6105
 21
178.637
  0
LINE
  8
0
 10
70.6105
 20
178.637
 11
70.0859
 21
179.424
  0
LINE
  8
0
 10
70.0859
 20
179.424
 11
68.9133
 21
179.201
  0
LINE
  8
0
 10
68.9133
 20
179.201
 11
68.7155
 21
178.275
  0
LINE
  8
0
 10
68.7155
 20
178.275
 11
68.5912
 21
177.464
  0
LINE
  8
0
 10
68.5912
 20
177.464
 11
68.5265
 21
176.771
  0
LINE
  8
0
 10
68.5265
 20
176.771
 11
68.5067
 21
176.2
  0
LINE
  8
0
 10
68.5067
 20
176.2
 11
68.5174
 21
175.755
  0
LINE
  8
0
 10
68.5174
 20
175.755
 11
68.5202
 21
175.743
  0
LINE
  8
0
 10
68.5202
 20
175.743
 11
67.2094
 21
175.407
  0
LINE
  8
0
 10
67.2094
 20
175.407
 11
67.2062
 21
175.418
  0
LINE
  8
0
 10
67.2062
 20
175.418
 11
67.001
 21
175.814
  0
LINE
  8
0
 10
67.001
 20
175.814
 11
66.7089
 21
176.304
  0
LINE
  8
0
 10
66.7089
 20
176.304
 11
66.3183
 21
176.88
  0
LINE
  8
0
 10
66.3183
 20
176.88
 11
65.8184
 21
177.531
  0
LINE
  8
0
 10
65.8184
 20
177.531
 11
65.1992
 21
178.247
  0
LINE
  8
0
 10
65.1992
 20
178.247
 11
64.0639
 21
177.878
  0
LINE
  8
0
 10
64.0639
 20
177.878
 11
63.9836
 21
176.935
  0
LINE
  8
0
 10
63.9836
 20
176.935
 11
63.9621
 21
176.115
  0
LINE
  8
0
 10
63.9621
 20
176.115
 11
63.9847
 21
175.419
  0
LINE
  8
0
 10
63.9847
 20
175.419
 11
64.0366
 21
174.85
  0
LINE
  8
0
 10
64.0366
 20
174.85
 11
64.103
 21
174.41
  0
LINE
  8
0
 10
64.103
 20
174.41
 11
64.1072
 21
174.399
  0
LINE
  8
0
 10
64.1072
 20
174.399
 11
62.849
 21
173.901
  0
LINE
  8
0
 10
62.849
 20
173.901
 11
62.8444
 21
173.912
  0
LINE
  8
0
 10
62.8444
 20
173.912
 11
62.5912
 21
174.278
  0
LINE
  8
0
 10
62.5912
 20
174.278
 11
62.2399
 21
174.728
  0
LINE
  8
0
 10
62.2399
 20
174.728
 11
61.7802
 21
175.251
  0
LINE
  8
0
 10
61.7802
 20
175.251
 11
61.2026
 21
175.834
  0
LINE
  8
0
 10
61.2026
 20
175.834
 11
60.4986
 21
176.467
  0
LINE
  8
0
 10
60.4986
 20
176.467
 11
59.4185
 21
175.958
  0
LINE
  8
0
 10
59.4185
 20
175.958
 11
59.457
 21
175.013
  0
LINE
  8
0
 10
59.457
 20
175.013
 11
59.5385
 21
174.196
  0
LINE
  8
0
 10
59.5385
 20
174.196
 11
59.6481
 21
173.509
  0
LINE
  8
0
 10
59.6481
 20
173.509
 11
59.7709
 21
172.951
  0
LINE
  8
0
 10
59.7709
 20
172.951
 11
59.892
 21
172.522
  0
LINE
  8
0
 10
59.892
 20
172.522
 11
59.8976
 21
172.512
  0
LINE
  8
0
 10
59.8976
 20
172.512
 11
58.7117
 21
171.86
  0
LINE
  8
0
 10
58.7117
 20
171.86
 11
58.7057
 21
171.87
  0
LINE
  8
0
 10
58.7057
 20
171.87
 11
58.4086
 21
172.202
  0
LINE
  8
0
 10
58.4086
 20
172.202
 11
58.0037
 21
172.604
  0
LINE
  8
0
 10
58.0037
 20
172.604
 11
57.4821
 21
173.065
  0
LINE
  8
0
 10
57.4821
 20
173.065
 11
56.8359
 21
173.572
  0
LINE
  8
0
 10
56.8359
 20
173.572
 11
56.0582
 21
174.111
  0
LINE
  8
0
 10
56.0582
 20
174.111
 11
55.0504
 21
173.471
  0
LINE
  8
0
 10
55.0504
 20
173.471
 11
55.2071
 21
172.538
  0
LINE
  8
0
 10
55.2071
 20
172.538
 11
55.3904
 21
171.738
  0
LINE
  8
0
 10
55.3904
 20
171.738
 11
55.5852
 21
171.07
  0
LINE
  8
0
 10
55.5852
 20
171.07
 11
55.7769
 21
170.532
  0
LINE
  8
0
 10
55.7769
 20
170.532
 11
55.9508
 21
170.122
  0
LINE
  8
0
 10
55.9508
 20
170.122
 11
55.9576
 21
170.112
  0
LINE
  8
0
 10
55.9576
 20
170.112
 11
54.8628
 21
169.317
  0
LINE
  8
0
 10
54.8628
 20
169.317
 11
54.8556
 21
169.326
  0
LINE
  8
0
 10
54.8556
 20
169.326
 11
54.5192
 21
169.618
  0
LINE
  8
0
 10
54.5192
 20
169.618
 11
54.067
 21
169.967
  0
LINE
  8
0
 10
54.067
 20
169.967
 11
53.4919
 21
170.358
  0
LINE
  8
0
 10
53.4919
 20
170.358
 11
52.7872
 21
170.78
  0
LINE
  8
0
 10
52.7872
 20
170.78
 11
51.9481
 21
171.217
  0
LINE
  8
0
 10
51.9481
 20
171.217
 11
51.0284
 21
170.457
  0
LINE
  8
0
 10
51.0284
 20
170.457
 11
51.3008
 21
169.55
  0
LINE
  8
0
 10
51.3008
 20
169.55
 11
51.5829
 21
168.779
  0
LINE
  8
0
 10
51.5829
 20
168.779
 11
51.86
 21
168.141
  0
LINE
  8
0
 10
51.86
 20
168.141
 11
52.1175
 21
167.631
  0
LINE
  8
0
 10
52.1175
 20
167.631
 11
52.3415
 21
167.246
  0
LINE
  8
0
 10
52.3415
 20
167.246
 11
52.3495
 21
167.237
  0
LINE
  8
0
 10
52.3495
 20
167.237
 11
51.363
 21
166.311
  0
LINE
  8
0
 10
51.363
 20
166.311
 11
51.3547
 21
166.32
  0
LINE
  8
0
 10
51.3547
 20
166.32
 11
50.9843
 21
166.567
  0
LINE
  8
0
 10
50.9843
 20
166.567
 11
50.4921
 21
166.856
  0
LINE
  8
0
 10
50.4921
 20
166.856
 11
49.8723
 21
167.173
  0
LINE
  8
0
 10
49.8723
 20
167.173
 11
49.1204
 21
167.503
  0
LINE
  8
0
 10
49.1204
 20
167.503
 11
48.2331
 21
167.832
  0
LINE
  8
0
 10
48.2331
 20
167.832
 11
47.4159
 21
166.961
  0
LINE
  8
0
 10
47.4159
 20
166.961
 11
47.7998
 21
166.097
  0
LINE
  8
0
 10
47.7998
 20
166.097
 11
48.1763
 21
165.367
  0
LINE
  8
0
 10
48.1763
 20
165.367
 11
48.5312
 21
164.768
  0
LINE
  8
0
 10
48.5312
 20
164.768
 11
48.8506
 21
164.295
  0
LINE
  8
0
 10
48.8506
 20
164.295
 11
49.1211
 21
163.941
  0
LINE
  8
0
 10
49.1211
 20
163.941
 11
49.1301
 21
163.933
  0
LINE
  8
0
 10
49.1301
 20
163.933
 11
48.2675
 21
162.89
  0
LINE
  8
0
 10
48.2675
 20
162.89
 11
48.2582
 21
162.898
  0
LINE
  8
0
 10
48.2582
 20
162.898
 11
47.8596
 21
163.097
  0
LINE
  8
0
 10
47.8596
 20
163.097
 11
47.3351
 21
163.322
  0
LINE
  8
0
 10
47.3351
 20
163.322
 11
46.6805
 21
163.559
  0
LINE
  8
0
 10
46.6805
 20
163.559
 11
45.8932
 21
163.792
  0
LINE
  8
0
 10
45.8932
 20
163.792
 11
44.9717
 21
164.007
  0
LINE
  8
0
 10
44.9717
 20
164.007
 11
44.27
 21
163.041
  0
LINE
  8
0
 10
44.27
 20
163.041
 11
44.7593
 21
162.231
  0
LINE
  8
0
 10
44.7593
 20
162.231
 11
45.2243
 21
161.554
  0
LINE
  8
0
 10
45.2243
 20
161.554
 11
45.6514
 21
161.005
  0
LINE
  8
0
 10
45.6514
 20
161.005
 11
46.0276
 21
160.576
  0
LINE
  8
0
 10
46.0276
 20
160.576
 11
46.3403
 21
160.258
  0
LINE
  8
0
 10
46.3403
 20
160.258
 11
46.3502
 21
160.252
  0
LINE
  8
0
 10
46.3502
 20
160.252
 11
45.6251
 21
159.109
  0
LINE
  8
0
 10
45.6251
 20
159.109
 11
45.6149
 21
159.115
  0
LINE
  8
0
 10
45.6149
 20
159.115
 11
45.1946
 21
159.263
  0
LINE
  8
0
 10
45.1946
 20
159.263
 11
44.6459
 21
159.421
  0
LINE
  8
0
 10
44.6459
 20
159.421
 11
43.9669
 21
159.573
  0
LINE
  8
0
 10
43.9669
 20
159.573
 11
43.1566
 21
159.706
  0
LINE
  8
0
 10
43.1566
 20
159.706
 11
42.2153
 21
159.803
  0
LINE
  8
0
 10
42.2153
 20
159.803
 11
41.6403
 21
158.757
  0
LINE
  8
0
 10
41.6403
 20
158.757
 11
42.2272
 21
158.015
  0
LINE
  8
0
 10
42.2272
 20
158.015
 11
42.7734
 21
157.402
  0
LINE
  8
0
 10
42.7734
 20
157.402
 11
43.266
 21
156.91
  0
LINE
  8
0
 10
43.266
 20
156.91
 11
43.693
 21
156.532
  0
LINE
  8
0
 10
43.693
 20
156.532
 11
44.043
 21
156.256
  0
LINE
  8
0
 10
44.043
 20
156.256
 11
44.0537
 21
156.251
  0
LINE
  8
0
 10
44.0537
 20
156.251
 11
43.4775
 21
155.026
  0
LINE
  8
0
 10
43.4775
 20
155.026
 11
43.4667
 21
155.031
  0
LINE
  8
0
 10
43.4667
 20
155.031
 11
43.0311
 21
155.125
  0
LINE
  8
0
 10
43.0311
 20
155.125
 11
42.467
 21
155.212
  0
LINE
  8
0
 10
42.467
 20
155.212
 11
41.7742
 21
155.279
  0
LINE
  8
0
 10
41.7742
 20
155.279
 11
40.9536
 21
155.309
  0
LINE
  8
0
 10
40.9536
 20
155.309
 11
40.0076
 21
155.288
  0
LINE
  8
0
 10
40.0076
 20
155.288
 11
39.5682
 21
154.178
  0
LINE
  8
0
 10
39.5682
 20
154.178
 11
40.2435
 21
153.515
  0
LINE
  8
0
 10
40.2435
 20
153.515
 11
40.8622
 21
152.975
  0
LINE
  8
0
 10
40.8622
 20
152.975
 11
41.4126
 21
152.549
  0
LINE
  8
0
 10
41.4126
 20
152.549
 11
41.8836
 21
152.227
  0
LINE
  8
0
 10
41.8836
 20
152.227
 11
42.2655
 21
151.997
  0
LINE
  8
0
 10
42.2655
 20
151.997
 11
42.2768
 21
151.993
  0
LINE
  8
0
 10
42.2768
 20
151.993
 11
41.8586
 21
150.706
  0
LINE
  8
0
 10
41.8586
 20
150.706
 11
41.8472
 21
150.71
  0
LINE
  8
0
 10
41.8472
 20
150.71
 11
41.4032
 21
150.748
  0
LINE
  8
0
 10
41.4032
 20
150.748
 11
40.8327
 21
150.765
  0
LINE
  8
0
 10
40.8327
 20
150.765
 11
40.137
 21
150.743
  0
LINE
  8
0
 10
40.137
 20
150.743
 11
39.3192
 21
150.67
  0
LINE
  8
0
 10
39.3192
 20
150.67
 11
38.3832
 21
150.531
  0
LINE
  8
0
 10
38.3832
 20
150.531
 11
38.0863
 21
149.375
  0
LINE
  8
0
 10
38.0863
 20
149.375
 11
38.8394
 21
148.802
  0
LINE
  8
0
 10
38.8394
 20
148.802
 11
39.5209
 21
148.344
  0
LINE
  8
0
 10
39.5209
 20
148.344
 11
40.1203
 21
147.99
  0
LINE
  8
0
 10
40.1203
 20
147.99
 11
40.6281
 21
147.729
  0
LINE
  8
0
 10
40.6281
 20
147.729
 11
41.0357
 21
147.549
  0
LINE
  8
0
 10
41.0357
 20
147.549
 11
41.0474
 21
147.547
  0
LINE
  8
0
 10
41.0474
 20
147.547
 11
40.7938
 21
146.218
  0
LINE
  8
0
 10
40.7938
 20
146.218
 11
40.7821
 21
146.22
  0
LINE
  8
0
 10
40.7821
 20
146.22
 11
40.3368
 21
146.202
  0
LINE
  8
0
 10
40.3368
 20
146.202
 11
39.7687
 21
146.147
  0
LINE
  8
0
 10
39.7687
 20
146.147
 11
39.0812
 21
146.039
  0
LINE
  8
0
 10
39.0812
 20
146.039
 11
38.2789
 21
145.864
  0
LINE
  8
0
 10
38.2789
 20
145.864
 11
37.3678
 21
145.608
  0
LINE
  8
0
 10
37.3678
 20
145.608
 11
37.2182
 21
144.424
  0
LINE
  8
0
 10
37.2182
 20
144.424
 11
38.0371
 21
143.95
  0
LINE
  8
0
 10
38.0371
 20
143.95
 11
38.7707
 21
143.581
  0
LINE
  8
0
 10
38.7707
 20
143.581
 11
39.4097
 21
143.305
  0
LINE
  8
0
 10
39.4097
 20
143.305
 11
39.9461
 21
143.11
  0
LINE
  8
0
 10
39.9461
 20
143.11
 11
40.3731
 21
142.982
  0
LINE
  8
0
 10
40.3731
 20
142.982
 11
40.385
 21
142.982
  0
LINE
  8
0
 10
40.385
 20
142.982
 11
40.3
 21
141.631
  0
LINE
  8
0
 10
40.3
 20
141.631
 11
40.2881
 21
141.631
  0
LINE
  8
0
 10
40.2881
 20
141.631
 11
39.8485
 21
141.558
  0
LINE
  8
0
 10
39.8485
 20
141.558
 11
39.2919
 21
141.432
  0
LINE
  8
0
 10
39.2919
 20
141.432
 11
38.6233
 21
141.239
  0
LINE
  8
0
 10
38.6233
 20
141.239
 11
37.8493
 21
140.965
  0
LINE
  8
0
 10
37.8493
 20
140.965
 11
36.9774
 21
140.597
  0
LINE
  8
0
 10
36.9774
 20
140.597
 11
36.9774
 21
139.403
  0
LINE
  8
0
 10
36.9774
 20
139.403
 11
37.8493
 21
139.035
  0
LINE
  8
0
 10
37.8493
 20
139.035
 11
38.6233
 21
138.761
  0
LINE
  8
0
 10
38.6233
 20
138.761
 11
39.2919
 21
138.568
  0
LINE
  8
0
 10
39.2919
 20
138.568
 11
39.8485
 21
138.442
  0
LINE
  8
0
 10
39.8485
 20
138.442
 11
40.2881
 21
138.369
  0
LINE
  8
0
 10
40.2881
 20
138.369
 11
40.3
 21
138.369
  0
LINE
  8
0
 10
40.3
 20
138.369
 11
40.385
 21
137.018
  0
LINE
  8
0
 10
40.385
 20
137.018
 11
40.3731
 21
137.018
  0
LINE
  8
0
 10
40.3731
 20
137.018
 11
39.9461
 21
136.89
  0
LINE
  8
0
 10
39.9461
 20
136.89
 11
39.4097
 21
136.695
  0
LINE
  8
0
 10
39.4097
 20
136.695
 11
38.7707
 21
136.419
  0
LINE
  8
0
 10
38.7707
 20
136.419
 11
38.0371
 21
136.05
  0
LINE
  8
0
 10
38.0371
 20
136.05
 11
37.2182
 21
135.576
  0
LINE
  8
0
 10
37.2182
 20
135.576
 11
37.3678
 21
134.392
  0
LINE
  8
0
 10
37.3678
 20
134.392
 11
38.2789
 21
134.136
  0
LINE
  8
0
 10
38.2789
 20
134.136
 11
39.0812
 21
133.961
  0
LINE
  8
0
 10
39.0812
 20
133.961
 11
39.7687
 21
133.853
  0
LINE
  8
0
 10
39.7687
 20
133.853
 11
40.3368
 21
133.798
  0
LINE
  8
0
 10
40.3368
 20
133.798
 11
40.7821
 21
133.78
  0
LINE
  8
0
 10
40.7821
 20
133.78
 11
40.7938
 21
133.782
  0
LINE
  8
0
 10
40.7938
 20
133.782
 11
41.0474
 21
132.453
  0
LINE
  8
0
 10
41.0474
 20
132.453
 11
41.0357
 21
132.451
  0
LINE
  8
0
 10
41.0357
 20
132.451
 11
40.6281
 21
132.271
  0
LINE
  8
0
 10
40.6281
 20
132.271
 11
40.1203
 21
132.01
  0
LINE
  8
0
 10
40.1203
 20
132.01
 11
39.5209
 21
131.656
  0
LINE
  8
0
 10
39.5209
 20
131.656
 11
38.8394
 21
131.198
  0
LINE
  8
0
 10
38.8394
 20
131.198
 11
38.0863
 21
130.625
  0
LINE
  8
0
 10
38.0863
 20
130.625
 11
38.3832
 21
129.469
  0
LINE
  8
0
 10
38.3832
 20
129.469
 11
39.3192
 21
129.33
  0
LINE
  8
0
 10
39.3192
 20
129.33
 11
40.137
 21
129.257
  0
LINE
  8
0
 10
40.137
 20
129.257
 11
40.8327
 21
129.235
  0
LINE
  8
0
 10
40.8327
 20
129.235
 11
41.4032
 21
129.252
  0
LINE
  8
0
 10
41.4032
 20
129.252
 11
41.8472
 21
129.29
  0
LINE
  8
0
 10
41.8472
 20
129.29
 11
41.8586
 21
129.294
  0
LINE
  8
0
 10
41.8586
 20
129.294
 11
42.2768
 21
128.007
  0
LINE
  8
0
 10
42.2768
 20
128.007
 11
42.2655
 21
128.003
  0
LINE
  8
0
 10
42.2655
 20
128.003
 11
41.8836
 21
127.773
  0
LINE
  8
0
 10
41.8836
 20
127.773
 11
41.4126
 21
127.451
  0
LINE
  8
0
 10
41.4126
 20
127.451
 11
40.8622
 21
127.025
  0
LINE
  8
0
 10
40.8622
 20
127.025
 11
40.2435
 21
126.485
  0
LINE
  8
0
 10
40.2435
 20
126.485
 11
39.5682
 21
125.822
  0
LINE
  8
0
 10
39.5682
 20
125.822
 11
40.0076
 21
124.712
  0
LINE
  8
0
 10
40.0076
 20
124.712
 11
40.9536
 21
124.691
  0
LINE
  8
0
 10
40.9536
 20
124.691
 11
41.7742
 21
124.721
  0
LINE
  8
0
 10
41.7742
 20
124.721
 11
42.467
 21
124.788
  0
LINE
  8
0
 10
42.467
 20
124.788
 11
43.0311
 21
124.875
  0
LINE
  8
0
 10
43.0311
 20
124.875
 11
43.4667
 21
124.969
  0
LINE
  8
0
 10
43.4667
 20
124.969
 11
43.4775
 21
124.974
  0
LINE
  8
0
 10
43.4775
 20
124.974
 11
44.0537
 21
123.749
  0
LINE
  8
0
 10
44.0537
 20
123.749
 11
44.043
 21
123.744
  0
LINE
  8
0
 10
44.043
 20
123.744
 11
43.693
 21
123.468
  0
LINE
  8
0
 10
43.693
 20
123.468
 11
43.266
 21
123.09
  0
LINE
  8
0
 10
43.266
 20
123.09
 11
42.7734
 21
122.598
  0
LINE
  8
0
 10
42.7734
 20
122.598
 11
42.2272
 21
121.985
  0
LINE
  8
0
 10
42.2272
 20
121.985
 11
41.6403
 21
121.243
  0
LINE
  8
0
 10
41.6403
 20
121.243
 11
42.2153
 21
120.197
  0
LINE
  8
0
 10
42.2153
 20
120.197
 11
43.1566
 21
120.294
  0
LINE
  8
0
 10
43.1566
 20
120.294
 11
43.9669
 21
120.427
  0
LINE
  8
0
 10
43.9669
 20
120.427
 11
44.6459
 21
120.579
  0
LINE
  8
0
 10
44.6459
 20
120.579
 11
45.1946
 21
120.737
  0
LINE
  8
0
 10
45.1946
 20
120.737
 11
45.6149
 21
120.885
  0
LINE
  8
0
 10
45.6149
 20
120.885
 11
45.6251
 21
120.891
  0
LINE
  8
0
 10
45.6251
 20
120.891
 11
46.3502
 21
119.748
  0
LINE
  8
0
 10
46.3502
 20
119.748
 11
46.3403
 21
119.742
  0
LINE
  8
0
 10
46.3403
 20
119.742
 11
46.0276
 21
119.424
  0
LINE
  8
0
 10
46.0276
 20
119.424
 11
45.6514
 21
118.995
  0
LINE
  8
0
 10
45.6514
 20
118.995
 11
45.2243
 21
118.446
  0
LINE
  8
0
 10
45.2243
 20
118.446
 11
44.7593
 21
117.769
  0
LINE
  8
0
 10
44.7593
 20
117.769
 11
44.27
 21
116.959
  0
LINE
  8
0
 10
44.27
 20
116.959
 11
44.9717
 21
115.993
  0
LINE
  8
0
 10
44.9717
 20
115.993
 11
45.8932
 21
116.208
  0
LINE
  8
0
 10
45.8932
 20
116.208
 11
46.6805
 21
116.441
  0
LINE
  8
0
 10
46.6805
 20
116.441
 11
47.3351
 21
116.678
  0
LINE
  8
0
 10
47.3351
 20
116.678
 11
47.8596
 21
116.903
  0
LINE
  8
0
 10
47.8596
 20
116.903
 11
48.2582
 21
117.102
  0
LINE
  8
0
 10
48.2582
 20
117.102
 11
48.2675
 21
117.11
  0
LINE
  8
0
 10
48.2675
 20
117.11
 11
49.1301
 21
116.067
  0
LINE
  8
0
 10
49.1301
 20
116.067
 11
49.1211
 21
116.059
  0
LINE
  8
0
 10
49.1211
 20
116.059
 11
48.8506
 21
115.705
  0
LINE
  8
0
 10
48.8506
 20
115.705
 11
48.5312
 21
115.232
  0
LINE
  8
0
 10
48.5312
 20
115.232
 11
48.1763
 21
114.633
  0
LINE
  8
0
 10
48.1763
 20
114.633
 11
47.7998
 21
113.903
  0
LINE
  8
0
 10
47.7998
 20
113.903
 11
47.4159
 21
113.039
  0
LINE
  8
0
 10
47.4159
 20
113.039
 11
48.2331
 21
112.168
  0
LINE
  8
0
 10
48.2331
 20
112.168
 11
49.1204
 21
112.497
  0
LINE
  8
0
 10
49.1204
 20
112.497
 11
49.8723
 21
112.827
  0
LINE
  8
0
 10
49.8723
 20
112.827
 11
50.4921
 21
113.144
  0
LINE
  8
0
 10
50.4921
 20
113.144
 11
50.9843
 21
113.433
  0
LINE
  8
0
 10
50.9843
 20
113.433
 11
51.3547
 21
113.68
  0
LINE
  8
0
 10
51.3547
 20
113.68
 11
51.363
 21
113.689
  0
LINE
  8
0
 10
51.363
 20
113.689
 11
52.3495
 21
112.763
  0
LINE
  8
0
 10
52.3495
 20
112.763
 11
52.3415
 21
112.754
  0
LINE
  8
0
 10
52.3415
 20
112.754
 11
52.1175
 21
112.369
  0
LINE
  8
0
 10
52.1175
 20
112.369
 11
51.86
 21
111.859
  0
LINE
  8
0
 10
51.86
 20
111.859
 11
51.5829
 21
111.221
  0
LINE
  8
0
 10
51.5829
 20
111.221
 11
51.3008
 21
110.45
  0
LINE
  8
0
 10
51.3008
 20
110.45
 11
51.0284
 21
109.543
  0
LINE
  8
0
 10
51.0284
 20
109.543
 11
51.9481
 21
108.783
  0
LINE
  8
0
 10
51.9481
 20
108.783
 11
52.7872
 21
109.22
  0
LINE
  8
0
 10
52.7872
 20
109.22
 11
53.4919
 21
109.642
  0
LINE
  8
0
 10
53.4919
 20
109.642
 11
54.067
 21
110.033
  0
LINE
  8
0
 10
54.067
 20
110.033
 11
54.5192
 21
110.382
  0
LINE
  8
0
 10
54.5192
 20
110.382
 11
54.8556
 21
110.674
  0
LINE
  8
0
 10
54.8556
 20
110.674
 11
54.8628
 21
110.683
  0
LINE
  8
0
 10
54.8628
 20
110.683
 11
55.9576
 21
109.888
  0
LINE
  8
0
 10
55.9576
 20
109.888
 11
55.9508
 21
109.878
  0
LINE
  8
0
 10
55.9508
 20
109.878
 11
55.7769
 21
109.468
  0
LINE
  8
0
 10
55.7769
 20
109.468
 11
55.5852
 21
108.93
  0
LINE
  8
0
 10
55.5852
 20
108.93
 11
55.3904
 21
108.262
  0
LINE
  8
0
 10
55.3904
 20
108.262
 11
55.2071
 21
107.462
  0
LINE
  8
0
 10
55.2071
 20
107.462
 11
55.0504
 21
106.529
  0
LINE
  8
0
 10
55.0504
 20
106.529
 11
56.0582
 21
105.889
  0
LINE
  8
0
 10
56.0582
 20
105.889
 11
56.8359
 21
106.428
  0
LINE
  8
0
 10
56.8359
 20
106.428
 11
57.4821
 21
106.935
  0
LINE
  8
0
 10
57.4821
 20
106.935
 11
58.0037
 21
107.396
  0
LINE
  8
0
 10
58.0037
 20
107.396
 11
58.4086
 21
107.798
  0
LINE
  8
0
 10
58.4086
 20
107.798
 11
58.7057
 21
108.13
  0
LINE
  8
0
 10
58.7057
 20
108.13
 11
58.7117
 21
108.14
  0
LINE
  8
0
 10
58.7117
 20
108.14
 11
59.8976
 21
107.488
  0
LINE
  8
0
 10
59.8976
 20
107.488
 11
59.892
 21
107.478
  0
LINE
  8
0
 10
59.892
 20
107.478
 11
59.7709
 21
107.049
  0
LINE
  8
0
 10
59.7709
 20
107.049
 11
59.6481
 21
106.491
  0
LINE
  8
0
 10
59.6481
 20
106.491
 11
59.5385
 21
105.804
  0
LINE
  8
0
 10
59.5385
 20
105.804
 11
59.457
 21
104.987
  0
LINE
  8
0
 10
59.457
 20
104.987
 11
59.4185
 21
104.042
  0
LINE
  8
0
 10
59.4185
 20
104.042
 11
60.4986
 21
103.533
  0
LINE
  8
0
 10
60.4986
 20
103.533
 11
61.2026
 21
104.166
  0
LINE
  8
0
 10
61.2026
 20
104.166
 11
61.7802
 21
104.749
  0
LINE
  8
0
 10
61.7802
 20
104.749
 11
62.2399
 21
105.272
  0
LINE
  8
0
 10
62.2399
 20
105.272
 11
62.5912
 21
105.722
  0
LINE
  8
0
 10
62.5912
 20
105.722
 11
62.8444
 21
106.088
  0
LINE
  8
0
 10
62.8444
 20
106.088
 11
62.849
 21
106.099
  0
LINE
  8
0
 10
62.849
 20
106.099
 11
64.1072
 21
105.601
  0
LINE
  8
0
 10
64.1072
 20
105.601
 11
64.103
 21
105.59
  0
LINE
  8
0
 10
64.103
 20
105.59
 11
64.0366
 21
105.15
  0
LINE
  8
0
 10
64.0366
 20
105.15
 11
63.9847
 21
104.581
  0
LINE
  8
0
 10
63.9847
 20
104.581
 11
63.9621
 21
103.885
  0
LINE
  8
0
 10
63.9621
 20
103.885
 11
63.9836
 21
103.065
  0
LINE
  8
0
 10
63.9836
 20
103.065
 11
64.0639
 21
102.122
  0
LINE
  8
0
 10
64.0639
 20
102.122
 11
65.1992
 21
101.753
  0
LINE
  8
0
 10
65.1992
 20
101.753
 11
65.8184
 21
102.469
  0
LINE
  8
0
 10
65.8184
 20
102.469
 11
66.3183
 21
103.12
  0
LINE
  8
0
 10
66.3183
 20
103.12
 11
66.7089
 21
103.696
  0
LINE
  8
0
 10
66.7089
 20
103.696
 11
67.001
 21
104.186
  0
LINE
  8
0
 10
67.001
 20
104.186
 11
67.2062
 21
104.582
  0
LINE
  8
0
 10
67.2062
 20
104.582
 11
67.2094
 21
104.593
  0
LINE
  8
0
 10
67.2094
 20
104.593
 11
68.5202
 21
104.257
  0
LINE
  8
0
 10
68.5202
 20
104.257
 11
68.5174
 21
104.245
  0
LINE
  8
0
 10
68.5174
 20
104.245
 11
68.5067
 21
103.8
  0
LINE
  8
0
 10
68.5067
 20
103.8
 11
68.5265
 21
103.229
  0
LINE
  8
0
 10
68.5265
 20
103.229
 11
68.5912
 21
102.536
  0
LINE
  8
0
 10
68.5912
 20
102.536
 11
68.7155
 21
101.725
  0
LINE
  8
0
 10
68.7155
 20
101.725
 11
68.9133
 21
100.799
  0
LINE
  8
0
 10
68.9133
 20
100.799
 11
70.0859
 21
100.576
  0
LINE
  8
0
 10
70.0859
 20
100.576
 11
70.6105
 21
101.363
  0
LINE
  8
0
 10
70.6105
 20
101.363
 11
71.0248
 21
102.072
  0
LINE
  8
0
 10
71.0248
 20
102.072
 11
71.3401
 21
102.693
  0
LINE
  8
0
 10
71.3401
 20
102.693
 11
71.5685
 21
103.216
  0
LINE
  8
0
 10
71.5685
 20
103.216
 11
71.7225
 21
103.634
  0
LINE
  8
0
 10
71.7225
 20
103.634
 11
71.7242
 21
103.646
  0
LINE
  8
0
 10
71.7242
 20
103.646
 11
73.0668
 21
103.476
  0
LINE
  8
0
 10
73.0668
 20
103.476
 11
73.0656
 21
103.464
  0
LINE
  8
0
 10
73.0656
 20
103.464
 11
73.1108
 21
103.021
  0
LINE
  8
0
 10
73.1108
 20
103.021
 11
73.2019
 21
102.457
  0
LINE
  8
0
 10
73.2019
 20
102.457
 11
73.353
 21
101.778
  0
LINE
  8
0
 10
73.353
 20
101.778
 11
73.578
 21
100.988
  0
LINE
  8
0
 10
73.578
 20
100.988
 11
73.8902
 21
100.095
  0
LINE
  8
0
 10
73.8902
 20
100.095
 11
75.0816
 21
100.02
  0
LINE
  8
0
 10
75.0816
 20
100.02
 11
75.5033
 21
100.867
  0
LINE
  8
0
 10
75.5033
 20
100.867
 11
75.8255
 21
101.622
  0
LINE
  8
0
 10
75.8255
 20
101.622
 11
76.0606
 21
102.277
  0
LINE
  8
0
 10
76.0606
 20
102.277
 11
76.2216
 21
102.825
  0
LINE
  8
0
 10
76.2216
 20
102.825
 11
76.322
 21
103.259
  0
LINE
  8
0
 10
76.322
 20
103.259
 11
76.3222
 21
103.271
  0
LINE
  8
0
 10
76.3222
 20
103.271
 11
77.6755
 21
103.271
  0
LINE
  8
0
 10
77.6755
 20
103.271
 11
77.6757
 21
103.259
  0
LINE
  8
0
 10
77.6757
 20
103.259
 11
77.7762
 21
102.825
  0
LINE
  8
0
 10
77.7762
 20
102.825
 11
77.9371
 21
102.277
  0
LINE
  8
0
 10
77.9371
 20
102.277
 11
78.1722
 21
101.622
  0
LINE
  8
0
 10
78.1722
 20
101.622
 11
78.4944
 21
100.867
  0
LINE
  8
0
 10
78.4944
 20
100.867
 11
78.9162
 21
100.02
  0
LINE
  8
0
 10
78.9162
 20
100.02
 11
80.1075
 21
100.095
  0
LINE
  8
0
 10
76.5808
 20
136.022
 11
75.7628
 21
136.196
  0
LINE
  8
0
 10
75.7628
 20
136.196
 11
74.9989
 21
136.536
  0
LINE
  8
0
 10
74.9989
 20
136.536
 11
74.3224
 21
137.027
  0
LINE
  8
0
 10
74.3224
 20
137.027
 11
73.7628
 21
137.649
  0
LINE
  8
0
 10
73.7628
 20
137.649
 11
73.3447
 21
138.373
  0
LINE
  8
0
 10
73.3447
 20
138.373
 11
73.0863
 21
139.168
  0
LINE
  8
0
 10
73.0863
 20
139.168
 11
72.9989
 21
140
  0
LINE
  8
0
 10
72.9989
 20
140
 11
73.0863
 21
140.832
  0
LINE
  8
0
 10
73.0863
 20
140.832
 11
73.3447
 21
141.627
  0
LINE
  8
0
 10
73.3447
 20
141.627
 11
73.7628
 21
142.351
  0
LINE
  8
0
 10
73.7628
 20
142.351
 11
74.3224
 21
142.973
  0
LINE
  8
0
 10
74.3224
 20
142.973
 11
74.9989
 21
143.464
  0
LINE
  8
0
 10
74.9989
 20
143.464
 11
75.7628
 21
143.804
  0
LINE
  8
0
 10
75.7628
 20
143.804
 11
76.5808
 21
143.978
  0
LINE
  8
0
 10
76.5808
 20
143.978
 11
77.417
 21
143.978
  0
LINE
  8
0
 10
77.417
 20
143.978
 11
78.2349
 21
143.804
  0
LINE
  8
0
 10
78.2349
 20
143.804
 11
78.9989
 21
143.464
  0
LINE
  8
0
 10
78.9989
 20
143.464
 11
79.6754
 21
142.973
  0
LINE
  8
0
 10
79.6754
 20
142.973
 11
80.2349
 21
142.351
  0
LINE
  8
0
 10
80.2349
 20
142.351
 11
80.6531
 21
141.627
  0
LINE
  8
0
 10
80.6531
 20
141.627
 11
80.9115
 21
140.832
  0
LINE
  8
0
 10
80.9115
 20
140.832
 11
80.9989
 21
140
  0
LINE
  8
0
 10
80.9989
 20
140
 11
80.9115
 21
139.168
  0
LINE
  8
0
 10
80.9115
 20
139.168
 11
80.6531
 21
138.373
  0
LINE
  8
0
 10
80.6531
 20
138.373
 11
80.2349
 21
137.649
  0
LINE
  8
0
 10
80.2349
 20
137.649
 11
79.6754
 21
137.027
  0
LINE
  8
0
 10
79.6754
 20
137.027
 11
78.9989
 21
136.536
  0
LINE
  8
0
 10
78.9989
 20
136.536
 11
78.2349
 21
136.196
  0
LINE
  8
0
 10
78.2349
 20
136.196
 11
77.417
 21
136.022
  0
LINE
  8
0
 10
77.417
 20
136.022
 11
76.5808
 21
136.022
  0
LINE
  8
0
 10
157.155
 20
120.238
 11
157.466
 21
121.217
  0
LINE
  8
0
 10
157.466
 20
121.217
 11
157.619
 21
122.002
  0
LINE
  8
0
 10
157.619
 20
122.002
 11
157.664
 21
122.571
  0
LINE
  8
0
 10
157.664
 20
122.571
 11
157.653
 21
122.913
  0
LINE
  8
0
 10
157.653
 20
122.913
 11
157.638
 21
123.027
  0
LINE
  8
0
 10
157.638
 20
123.027
 11
157.504
 21
123.652
  0
LINE
  8
0
 10
157.504
 20
123.652
 11
159.136
 21
124.089
  0
LINE
  8
0
 10
159.136
 20
124.089
 11
159.332
 21
123.481
  0
LINE
  8
0
 10
159.332
 20
123.481
 11
159.375
 21
123.375
  0
LINE
  8
0
 10
159.375
 20
123.375
 11
159.537
 21
123.073
  0
LINE
  8
0
 10
159.537
 20
123.073
 11
159.861
 21
122.602
  0
LINE
  8
0
 10
159.861
 20
122.602
 11
160.386
 21
122
  0
LINE
  8
0
 10
160.386
 20
122
 11
161.145
 21
121.307
  0
LINE
  8
0
 10
161.145
 20
121.307
 11
162.162
 21
121.728
  0
LINE
  8
0
 10
162.162
 20
121.728
 11
162.209
 21
122.755
  0
LINE
  8
0
 10
162.209
 20
122.755
 11
162.154
 21
123.552
  0
LINE
  8
0
 10
162.154
 20
123.552
 11
162.05
 21
124.114
  0
LINE
  8
0
 10
162.05
 20
124.114
 11
161.951
 21
124.442
  0
LINE
  8
0
 10
161.951
 20
124.442
 11
161.907
 21
124.547
  0
LINE
  8
0
 10
161.907
 20
124.547
 11
161.615
 21
125.117
  0
LINE
  8
0
 10
161.615
 20
125.117
 11
163.078
 21
125.961
  0
LINE
  8
0
 10
163.078
 20
125.961
 11
163.426
 21
125.424
  0
LINE
  8
0
 10
163.426
 20
125.424
 11
163.495
 21
125.333
  0
LINE
  8
0
 10
163.495
 20
125.333
 11
163.729
 21
125.083
  0
LINE
  8
0
 10
163.729
 20
125.083
 11
164.164
 21
124.713
  0
LINE
  8
0
 10
164.164
 20
124.713
 11
164.827
 21
124.266
  0
LINE
  8
0
 10
164.827
 20
124.266
 11
165.739
 21
123.793
  0
LINE
  8
0
 10
165.739
 20
123.793
 11
166.613
 21
124.464
  0
LINE
  8
0
 10
166.613
 20
124.464
 11
166.392
 21
125.468
  0
LINE
  8
0
 10
166.392
 20
125.468
 11
166.133
 21
126.224
  0
LINE
  8
0
 10
166.133
 20
126.224
 11
165.888
 21
126.739
  0
LINE
  8
0
 10
165.888
 20
126.739
 11
165.707
 21
127.03
  0
LINE
  8
0
 10
165.707
 20
127.03
 11
165.637
 21
127.121
  0
LINE
  8
0
 10
165.637
 20
127.121
 11
165.208
 21
127.595
  0
LINE
  8
0
 10
165.208
 20
127.595
 11
166.402
 21
128.79
  0
LINE
  8
0
 10
166.402
 20
128.79
 11
166.877
 21
128.361
  0
LINE
  8
0
 10
166.877
 20
128.361
 11
166.968
 21
128.291
  0
LINE
  8
0
 10
166.968
 20
128.291
 11
167.258
 21
128.11
  0
LINE
  8
0
 10
167.258
 20
128.11
 11
167.774
 21
127.865
  0
LINE
  8
0
 10
167.774
 20
127.865
 11
168.53
 21
127.605
  0
LINE
  8
0
 10
168.53
 20
127.605
 11
169.534
 21
127.385
  0
LINE
  8
0
 10
169.534
 20
127.385
 11
170.204
 21
128.258
  0
LINE
  8
0
 10
170.204
 20
128.258
 11
169.731
 21
129.171
  0
LINE
  8
0
 10
169.731
 20
129.171
 11
169.285
 21
129.834
  0
LINE
  8
0
 10
169.285
 20
129.834
 11
168.915
 21
130.268
  0
LINE
  8
0
 10
168.915
 20
130.268
 11
168.665
 21
130.503
  0
LINE
  8
0
 10
168.665
 20
130.503
 11
168.574
 21
130.572
  0
LINE
  8
0
 10
168.574
 20
130.572
 11
168.036
 21
130.919
  0
LINE
  8
0
 10
168.036
 20
130.919
 11
168.881
 21
132.382
  0
LINE
  8
0
 10
168.881
 20
132.382
 11
169.451
 21
132.091
  0
LINE
  8
0
 10
169.451
 20
132.091
 11
169.556
 21
132.047
  0
LINE
  8
0
 10
169.556
 20
132.047
 11
169.884
 21
131.947
  0
LINE
  8
0
 10
169.884
 20
131.947
 11
170.445
 21
131.844
  0
LINE
  8
0
 10
170.445
 20
131.844
 11
171.243
 21
131.789
  0
LINE
  8
0
 10
171.243
 20
131.789
 11
172.27
 21
131.835
  0
LINE
  8
0
 10
172.27
 20
131.835
 11
172.691
 21
132.853
  0
LINE
  8
0
 10
172.691
 20
132.853
 11
171.998
 21
133.612
  0
LINE
  8
0
 10
171.998
 20
133.612
 11
171.395
 21
134.137
  0
LINE
  8
0
 10
171.395
 20
134.137
 11
170.925
 21
134.461
  0
LINE
  8
0
 10
170.925
 20
134.461
 11
170.623
 21
134.622
  0
LINE
  8
0
 10
170.623
 20
134.622
 11
170.517
 21
134.666
  0
LINE
  8
0
 10
170.517
 20
134.666
 11
169.908
 21
134.862
  0
LINE
  8
0
 10
169.908
 20
134.862
 11
170.346
 21
136.494
  0
LINE
  8
0
 10
170.346
 20
136.494
 11
170.971
 21
136.36
  0
LINE
  8
0
 10
170.971
 20
136.36
 11
171.084
 21
136.345
  0
LINE
  8
0
 10
171.084
 20
136.345
 11
171.427
 21
136.333
  0
LINE
  8
0
 10
171.427
 20
136.333
 11
171.996
 21
136.379
  0
LINE
  8
0
 10
171.996
 20
136.379
 11
172.78
 21
136.532
  0
LINE
  8
0
 10
172.78
 20
136.532
 11
173.76
 21
136.843
  0
LINE
  8
0
 10
173.76
 20
136.843
 11
173.904
 21
137.935
  0
LINE
  8
0
 10
173.904
 20
137.935
 11
173.038
 21
138.488
  0
LINE
  8
0
 10
173.038
 20
138.488
 11
172.32
 21
138.84
  0
LINE
  8
0
 10
172.32
 20
138.84
 11
171.782
 21
139.031
  0
LINE
  8
0
 10
171.782
 20
139.031
 11
171.448
 21
139.108
  0
LINE
  8
0
 10
171.448
 20
139.108
 11
171.335
 21
139.123
  0
LINE
  8
0
 10
171.335
 20
139.123
 11
170.696
 21
139.155
  0
LINE
  8
0
 10
170.696
 20
139.155
 11
170.696
 21
140.845
  0
LINE
  8
0
 10
170.696
 20
140.845
 11
171.335
 21
140.877
  0
LINE
  8
0
 10
171.335
 20
140.877
 11
171.448
 21
140.892
  0
LINE
  8
0
 10
171.448
 20
140.892
 11
171.782
 21
140.969
  0
LINE
  8
0
 10
171.782
 20
140.969
 11
172.32
 21
141.16
  0
LINE
  8
0
 10
172.32
 20
141.16
 11
173.038
 21
141.512
  0
LINE
  8
0
 10
173.038
 20
141.512
 11
173.904
 21
142.065
  0
LINE
  8
0
 10
173.904
 20
142.065
 11
173.76
 21
143.157
  0
LINE
  8
0
 10
173.76
 20
143.157
 11
172.78
 21
143.468
  0
LINE
  8
0
 10
172.78
 20
143.468
 11
171.996
 21
143.621
  0
LINE
  8
0
 10
171.996
 20
143.621
 11
171.427
 21
143.667
  0
LINE
  8
0
 10
171.427
 20
143.667
 11
171.084
 21
143.655
  0
LINE
  8
0
 10
171.084
 20
143.655
 11
170.971
 21
143.64
  0
LINE
  8
0
 10
170.971
 20
143.64
 11
170.346
 21
143.506
  0
LINE
  8
0
 10
170.346
 20
143.506
 11
169.908
 21
145.138
  0
LINE
  8
0
 10
169.908
 20
145.138
 11
170.517
 21
145.334
  0
LINE
  8
0
 10
170.517
 20
145.334
 11
170.623
 21
145.378
  0
LINE
  8
0
 10
170.623
 20
145.378
 11
170.925
 21
145.539
  0
LINE
  8
0
 10
170.925
 20
145.539
 11
171.395
 21
145.863
  0
LINE
  8
0
 10
171.395
 20
145.863
 11
171.998
 21
146.388
  0
LINE
  8
0
 10
171.998
 20
146.388
 11
172.691
 21
147.147
  0
LINE
  8
0
 10
172.691
 20
147.147
 11
172.27
 21
148.165
  0
LINE
  8
0
 10
172.27
 20
148.165
 11
171.243
 21
148.211
  0
LINE
  8
0
 10
171.243
 20
148.211
 11
170.445
 21
148.156
  0
LINE
  8
0
 10
170.445
 20
148.156
 11
169.884
 21
148.053
  0
LINE
  8
0
 10
169.884
 20
148.053
 11
169.556
 21
147.953
  0
LINE
  8
0
 10
169.556
 20
147.953
 11
169.451
 21
147.909
  0
LINE
  8
0
 10
169.451
 20
147.909
 11
168.881
 21
147.618
  0
LINE
  8
0
 10
168.881
 20
147.618
 11
168.036
 21
149.081
  0
LINE
  8
0
 10
168.036
 20
149.081
 11
168.574
 21
149.428
  0
LINE
  8
0
 10
168.574
 20
149.428
 11
168.665
 21
149.497
  0
LINE
  8
0
 10
168.665
 20
149.497
 11
168.915
 21
149.732
  0
LINE
  8
0
 10
168.915
 20
149.732
 11
169.285
 21
150.166
  0
LINE
  8
0
 10
169.285
 20
150.166
 11
169.731
 21
150.829
  0
LINE
  8
0
 10
169.731
 20
150.829
 11
170.204
 21
151.742
  0
LINE
  8
0
 10
170.204
 20
151.742
 11
169.534
 21
152.615
  0
LINE
  8
0
 10
169.534
 20
152.615
 11
168.53
 21
152.395
  0
LINE
  8
0
 10
168.53
 20
152.395
 11
167.774
 21
152.135
  0
LINE
  8
0
 10
167.774
 20
152.135
 11
167.258
 21
151.89
  0
LINE
  8
0
 10
167.258
 20
151.89
 11
166.968
 21
151.709
  0
LINE
  8
0
 10
166.968
 20
151.709
 11
166.877
 21
151.639
  0
LINE
  8
0
 10
166.877
 20
151.639
 11
166.402
 21
151.21
  0
LINE
  8
0
 10
166.402
 20
151.21
 11
165.208
 21
152.405
  0
LINE
  8
0
 10
165.208
 20
152.405
 11
165.637
 21
152.879
  0
LINE
  8
0
 10
165.637
 20
152.879
 11
165.707
 21
152.97
  0
LINE
  8
0
 10
165.707
 20
152.97
 11
165.888
 21
153.261
  0
LINE
  8
0
 10
165.888
 20
153.261
 11
166.133
 21
153.776
  0
LINE
  8
0
 10
166.133
 20
153.776
 11
166.392
 21
154.532
  0
LINE
  8
0
 10
166.392
 20
154.532
 11
166.613
 21
155.536
  0
LINE
  8
0
 10
166.613
 20
155.536
 11
165.739
 21
156.207
  0
LINE
  8
0
 10
165.739
 20
156.207
 11
164.827
 21
155.734
  0
LINE
  8
0
 10
164.827
 20
155.734
 11
164.164
 21
155.287
  0
LINE
  8
0
 10
164.164
 20
155.287
 11
163.729
 21
154.917
  0
LINE
  8
0
 10
163.729
 20
154.917
 11
163.495
 21
154.667
  0
LINE
  8
0
 10
163.495
 20
154.667
 11
163.426
 21
154.576
  0
LINE
  8
0
 10
163.426
 20
154.576
 11
163.078
 21
154.039
  0
LINE
  8
0
 10
163.078
 20
154.039
 11
161.615
 21
154.883
  0
LINE
  8
0
 10
161.615
 20
154.883
 11
161.907
 21
155.453
  0
LINE
  8
0
 10
161.907
 20
155.453
 11
161.951
 21
155.558
  0
LINE
  8
0
 10
161.951
 20
155.558
 11
162.05
 21
155.886
  0
LINE
  8
0
 10
162.05
 20
155.886
 11
162.154
 21
156.448
  0
LINE
  8
0
 10
162.154
 20
156.448
 11
162.209
 21
157.245
  0
LINE
  8
0
 10
162.209
 20
157.245
 11
162.162
 21
158.272
  0
LINE
  8
0
 10
162.162
 20
158.272
 11
161.145
 21
158.693
  0
LINE
  8
0
 10
161.145
 20
158.693
 11
160.386
 21
158
  0
LINE
  8
0
 10
160.386
 20
158
 11
159.861
 21
157.398
  0
LINE
  8
0
 10
159.861
 20
157.398
 11
159.537
 21
156.927
  0
LINE
  8
0
 10
159.537
 20
156.927
 11
159.375
 21
156.625
  0
LINE
  8
0
 10
159.375
 20
156.625
 11
159.332
 21
156.519
  0
LINE
  8
0
 10
159.332
 20
156.519
 11
159.136
 21
155.911
  0
LINE
  8
0
 10
159.136
 20
155.911
 11
157.504
 21
156.348
  0
LINE
  8
0
 10
157.504
 20
156.348
 11
157.638
 21
156.973
  0
LINE
  8
0
 10
157.638
 20
156.973
 11
157.653
 21
157.087
  0
LINE
  8
0
 10
157.653
 20
157.087
 11
157.664
 21
157.429
  0
LINE
  8
0
 10
157.664
 20
157.429
 11
157.619
 21
157.998
  0
LINE
  8
0
 10
157.619
 20
157.998
 11
157.466
 21
158.783
  0
LINE
  8
0
 10
157.466
 20
158.783
 11
157.155
 21
159.762
  0
LINE
  8
0
 10
157.155
 20
159.762
 11
156.063
 21
159.906
  0
LINE
  8
0
 10
156.063
 20
159.906
 11
155.509
 21
159.04
  0
LINE
  8
0
 10
155.509
 20
159.04
 11
155.158
 21
158.322
  0
LINE
  8
0
 10
155.158
 20
158.322
 11
154.967
 21
157.784
  0
LINE
  8
0
 10
154.967
 20
157.784
 11
154.889
 21
157.451
  0
LINE
  8
0
 10
154.889
 20
157.451
 11
154.875
 21
157.337
  0
LINE
  8
0
 10
154.875
 20
157.337
 11
154.842
 21
156.698
  0
LINE
  8
0
 10
154.842
 20
156.698
 11
153.153
 21
156.698
  0
LINE
  8
0
 10
153.153
 20
156.698
 11
153.121
 21
157.337
  0
LINE
  8
0
 10
153.121
 20
157.337
 11
153.106
 21
157.451
  0
LINE
  8
0
 10
153.106
 20
157.451
 11
153.028
 21
157.784
  0
LINE
  8
0
 10
153.028
 20
157.784
 11
152.837
 21
158.322
  0
LINE
  8
0
 10
152.837
 20
158.322
 11
152.486
 21
159.04
  0
LINE
  8
0
 10
152.486
 20
159.04
 11
151.933
 21
159.906
  0
LINE
  8
0
 10
151.933
 20
159.906
 11
150.841
 21
159.762
  0
LINE
  8
0
 10
150.841
 20
159.762
 11
150.53
 21
158.783
  0
LINE
  8
0
 10
150.53
 20
158.783
 11
150.376
 21
157.998
  0
LINE
  8
0
 10
150.376
 20
157.998
 11
150.331
 21
157.429
  0
LINE
  8
0
 10
150.331
 20
157.429
 11
150.342
 21
157.087
  0
LINE
  8
0
 10
150.342
 20
157.087
 11
150.358
 21
156.973
  0
LINE
  8
0
 10
150.358
 20
156.973
 11
150.492
 21
156.348
  0
LINE
  8
0
 10
150.492
 20
156.348
 11
148.86
 21
155.911
  0
LINE
  8
0
 10
148.86
 20
155.911
 11
148.663
 21
156.519
  0
LINE
  8
0
 10
148.663
 20
156.519
 11
148.62
 21
156.625
  0
LINE
  8
0
 10
148.62
 20
156.625
 11
148.459
 21
156.927
  0
LINE
  8
0
 10
148.459
 20
156.927
 11
148.135
 21
157.398
  0
LINE
  8
0
 10
148.135
 20
157.398
 11
147.61
 21
158
  0
LINE
  8
0
 10
147.61
 20
158
 11
146.851
 21
158.693
  0
LINE
  8
0
 10
146.851
 20
158.693
 11
145.833
 21
158.272
  0
LINE
  8
0
 10
145.833
 20
158.272
 11
145.787
 21
157.245
  0
LINE
  8
0
 10
145.787
 20
157.245
 11
145.842
 21
156.448
  0
LINE
  8
0
 10
145.842
 20
156.448
 11
145.945
 21
155.886
  0
LINE
  8
0
 10
145.945
 20
155.886
 11
146.045
 21
155.558
  0
LINE
  8
0
 10
146.045
 20
155.558
 11
146.089
 21
155.453
  0
LINE
  8
0
 10
146.089
 20
155.453
 11
146.38
 21
154.883
  0
LINE
  8
0
 10
146.38
 20
154.883
 11
144.917
 21
154.039
  0
LINE
  8
0
 10
144.917
 20
154.039
 11
144.57
 21
154.576
  0
LINE
  8
0
 10
144.57
 20
154.576
 11
144.5
 21
154.667
  0
LINE
  8
0
 10
144.5
 20
154.667
 11
144.266
 21
154.917
  0
LINE
  8
0
 10
144.266
 20
154.917
 11
143.832
 21
155.287
  0
LINE
  8
0
 10
143.832
 20
155.287
 11
143.169
 21
155.734
  0
LINE
  8
0
 10
143.169
 20
155.734
 11
142.256
 21
156.207
  0
LINE
  8
0
 10
142.256
 20
156.207
 11
141.382
 21
155.536
  0
LINE
  8
0
 10
141.382
 20
155.536
 11
141.603
 21
154.532
  0
LINE
  8
0
 10
141.603
 20
154.532
 11
141.863
 21
153.776
  0
LINE
  8
0
 10
141.863
 20
153.776
 11
142.108
 21
153.261
  0
LINE
  8
0
 10
142.108
 20
153.261
 11
142.289
 21
152.97
  0
LINE
  8
0
 10
142.289
 20
152.97
 11
142.359
 21
152.879
  0
LINE
  8
0
 10
142.359
 20
152.879
 11
142.788
 21
152.405
  0
LINE
  8
0
 10
142.788
 20
152.405
 11
141.593
 21
151.21
  0
LINE
  8
0
 10
141.593
 20
151.21
 11
141.118
 21
151.639
  0
LINE
  8
0
 10
141.118
 20
151.639
 11
141.028
 21
151.709
  0
LINE
  8
0
 10
141.028
 20
151.709
 11
140.737
 21
151.89
  0
LINE
  8
0
 10
140.737
 20
151.89
 11
140.222
 21
152.135
  0
LINE
  8
0
 10
140.222
 20
152.135
 11
139.465
 21
152.395
  0
LINE
  8
0
 10
139.465
 20
152.395
 11
138.462
 21
152.615
  0
LINE
  8
0
 10
138.462
 20
152.615
 11
137.791
 21
151.742
  0
LINE
  8
0
 10
137.791
 20
151.742
 11
138.264
 21
150.829
  0
LINE
  8
0
 10
138.264
 20
150.829
 11
138.71
 21
150.166
  0
LINE
  8
0
 10
138.71
 20
150.166
 11
139.081
 21
149.732
  0
LINE
  8
0
 10
139.081
 20
149.732
 11
139.331
 21
149.497
  0
LINE
  8
0
 10
139.331
 20
149.497
 11
139.422
 21
149.428
  0
LINE
  8
0
 10
139.422
 20
149.428
 11
139.959
 21
149.081
  0
LINE
  8
0
 10
139.959
 20
149.081
 11
139.114
 21
147.618
  0
LINE
  8
0
 10
139.114
 20
147.618
 11
138.545
 21
147.909
  0
LINE
  8
0
 10
138.545
 20
147.909
 11
138.439
 21
147.953
  0
LINE
  8
0
 10
138.439
 20
147.953
 11
138.112
 21
148.053
  0
LINE
  8
0
 10
138.112
 20
148.053
 11
137.55
 21
148.156
  0
LINE
  8
0
 10
137.55
 20
148.156
 11
136.753
 21
148.211
  0
LINE
  8
0
 10
136.753
 20
148.211
 11
135.726
 21
148.165
  0
LINE
  8
0
 10
135.726
 20
148.165
 11
135.304
 21
147.147
  0
LINE
  8
0
 10
135.304
 20
147.147
 11
135.997
 21
146.388
  0
LINE
  8
0
 10
135.997
 20
146.388
 11
136.6
 21
145.863
  0
LINE
  8
0
 10
136.6
 20
145.863
 11
137.07
 21
145.539
  0
LINE
  8
0
 10
137.07
 20
145.539
 11
137.373
 21
145.378
  0
LINE
  8
0
 10
137.373
 20
145.378
 11
137.478
 21
145.334
  0
LINE
  8
0
 10
137.478
 20
145.334
 11
138.087
 21
145.138
  0
LINE
  8
0
 10
138.087
 20
145.138
 11
137.65
 21
143.506
  0
LINE
  8
0
 10
137.65
 20
143.506
 11
137.024
 21
143.64
  0
LINE
  8
0
 10
137.024
 20
143.64
 11
136.911
 21
143.655
  0
LINE
  8
0
 10
136.911
 20
143.655
 11
136.569
 21
143.667
  0
LINE
  8
0
 10
136.569
 20
143.667
 11
136
 21
143.621
  0
LINE
  8
0
 10
136
 20
143.621
 11
135.215
 21
143.468
  0
LINE
  8
0
 10
135.215
 20
143.468
 11
134.235
 21
143.157
  0
LINE
  8
0
 10
134.235
 20
143.157
 11
134.092
 21
142.065
  0
LINE
  8
0
 10
134.092
 20
142.065
 11
134.957
 21
141.512
  0
LINE
  8
0
 10
134.957
 20
141.512
 11
135.676
 21
141.16
  0
LINE
  8
0
 10
135.676
 20
141.16
 11
136.214
 21
140.969
  0
LINE
  8
0
 10
136.214
 20
140.969
 11
136.547
 21
140.892
  0
LINE
  8
0
 10
136.547
 20
140.892
 11
136.661
 21
140.877
  0
LINE
  8
0
 10
136.661
 20
140.877
 11
137.3
 21
140.845
  0
LINE
  8
0
 10
137.3
 20
140.845
 11
137.3
 21
139.155
  0
LINE
  8
0
 10
137.3
 20
139.155
 11
136.661
 21
139.123
  0
LINE
  8
0
 10
136.661
 20
139.123
 11
136.547
 21
139.108
  0
LINE
  8
0
 10
136.547
 20
139.108
 11
136.214
 21
139.031
  0
LINE
  8
0
 10
136.214
 20
139.031
 11
135.676
 21
138.84
  0
LINE
  8
0
 10
135.676
 20
138.84
 11
134.957
 21
138.488
  0
LINE
  8
0
 10
134.957
 20
138.488
 11
134.092
 21
137.935
  0
LINE
  8
0
 10
134.092
 20
137.935
 11
134.235
 21
136.843
  0
LINE
  8
0
 10
134.235
 20
136.843
 11
135.215
 21
136.532
  0
LINE
  8
0
 10
135.215
 20
136.532
 11
136
 21
136.379
  0
LINE
  8
0
 10
136
 20
136.379
 11
136.569
 21
136.333
  0
LINE
  8
0
 10
136.569
 20
136.333
 11
136.911
 21
136.345
  0
LINE
  8
0
 10
136.911
 20
136.345
 11
137.024
 21
136.36
  0
LINE
  8
0
 10
137.024
 20
136.36
 11
137.65
 21
136.494
  0
LINE
  8
0
 10
137.65
 20
136.494
 11
138.087
 21
134.862
  0
LINE
  8
0
 10
138.087
 20
134.862
 11
137.478
 21
134.666
  0
LINE
  8
0
 10
137.478
 20
134.666
 11
137.373
 21
134.622
  0
LINE
  8
0
 10
137.373
 20
134.622
 11
137.07
 21
134.461
  0
LINE
  8
0
 10
137.07
 20
134.461
 11
136.6
 21
134.137
  0
LINE
  8
0
 10
136.6
 20
134.137
 11
135.997
 21
133.612
  0
LINE
  8
0
 10
135.997
 20
133.612
 11
135.304
 21
132.853
  0
LINE
  8
0
 10
135.304
 20
132.853
 11
135.726
 21
131.835
  0
LINE
  8
0
 10
135.726
 20
131.835
 11
136.753
 21
131.789
  0
LINE
  8
0
 10
136.753
 20
131.789
 11
137.55
 21
131.844
  0
LINE
  8
0
 10
137.55
 20
131.844
 11
138.112
 21
131.947
  0
LINE
  8
0
 10
138.112
 20
131.947
 11
138.439
 21
132.047
  0
LINE
  8
0
 10
138.439
 20
132.047
 11
138.545
 21
132.091
  0
LINE
  8
0
 10
138.545
 20
132.091
 11
139.114
 21
132.382
  0
LINE
  8
0
 10
139.114
 20
132.382
 11
139.959
 21
130.919
  0
LINE
  8
0
 10
139.959
 20
130.919
 11
139.422
 21
130.572
  0
LINE
  8
0
 10
139.422
 20
130.572
 11
139.331
 21
130.503
  0
LINE
  8
0
 10
139.331
 20
130.503
 11
139.081
 21
130.268
  0
LINE
  8
0
 10
139.081
 20
130.268
 11
138.71
 21
129.834
  0
LINE
  8
0
 10
138.71
 20
129.834
 11
138.264
 21
129.171
  0
LINE
  8
0
 10
138.264
 20
129.171
 11
137.791
 21
128.258
  0
LINE
  8
0
 10
137.791
 20
128.258
 11
138.462
 21
127.385
  0
LINE
  8
0
 10
138.462
 20
127.385
 11
139.465
 21
127.605
  0
LINE
  8
0
 10
139.465
 20
127.605
 11
140.222
 21
127.865
  0
LINE
  8
0
 10
140.222
 20
127.865
 11
140.737
 21
128.11
  0
LINE
  8
0
 10
140.737
 20
128.11
 11
141.028
 21
128.291
  0
LINE
  8
0
 10
141.028
 20
128.291
 11
141.118
 21
128.361
  0
LINE
  8
0
 10
141.118
 20
128.361
 11
141.593
 21
128.79
  0
LINE
  8
0
 10
141.593
 20
128.79
 11
142.788
 21
127.595
  0
LINE
  8
0
 10
142.788
 20
127.595
 11
142.359
 21
127.121
  0
LINE
  8
0
 10
142.359
 20
127.121
 11
142.289
 21
127.03
  0
LINE
  8
0
 10
142.289
 20
127.03
 11
142.108
 21
126.739
  0
LINE
  8
0
 10
142.108
 20
126.739
 11
141.863
 21
126.224
  0
LINE
  8
0
 10
141.863
 20
126.224
 11
141.603
 21
125.468
  0
LINE
  8
0
 10
141.603
 20
125.468
 11
141.382
 21
124.464
  0
LINE
  8
0
 10
141.382
 20
124.464
 11
142.256
 21
123.793
  0
LINE
  8
0
 10
142.256
 20
123.793
 11
143.169
 21
124.266
  0
LINE
  8
0
 10
143.169
 20
124.266
 11
143.832
 21
124.713
  0
LINE
  8
0
 10
143.832
 20
124.713
 11
144.266
 21
125.083
  0
LINE
  8
0
 10
144.266
 20
125.083
 11
144.5
 21
125.333
  0
LINE
  8
0
 10
144.5
 20
125.333
 11
144.57
 21
125.424
  0
LINE
  8
0
 10
144.57
 20
125.424
 11
144.917
 21
125.961
  0
LINE
  8
0
 10
144.917
 20
125.961
 11
146.38
 21
125.117
  0
LINE
  8
0
 10
146.38
 20
125.117
 11
146.089
 21
124.547
  0
LINE
  8
0
 10
146.089
 20
124.547
 11
146.045
 21
124.442
  0
LINE
  8
0
 10
146.045
 20
124.442
 11
145.945
 21
124.114
  0
LINE
  8
0
 10
145.945
 20
124.114
 11
145.842
 21
123.552
  0
LINE
  8
0
 10
145.842
 20
123.552
 11
145.787
 21
122.755
  0
LINE
  8
0
 10
145.787
 20
122.755
 11
145.833
 21
121.728
  0
LINE
  8
0
 10
145.833
 20
121.728
 11
146.851
 21
121.307
  0
LINE
  8
0
 10
146.851
 20
121.307
 11
147.61
 21
122
  0
LINE
  8
0
 10
147.61
 20
122
 11
148.135
 21
122.602
  0
LINE
  8
0
 10
148.135
 20
122.602
 11
148.459
 21
123.073
  0
LINE
  8
0
 10
148.459
 20
123.073
 11
148.62
 21
123.375
  0
LINE
  8
0
 10
148.62
 20
123.375
 11
148.663
 21
123.481
  0
LINE
  8
0
 10
148.663
 20
123.481
 11
148.86
 21
124.089
  0
LINE
  8
0
 10
148.86
 20
124.089
 11
150.492
 21
123.652
  0
LINE
  8
0
 10
150.492
 20
123.652
 11
150.358
 21
123.027
  0
LINE
  8
0
 10
150.358
 20
123.027
 11
150.342
 21
122.913
  0
LINE
  8
0
 10
150.342
 20
122.913
 11
150.331
 21
122.571
  0
LINE
  8
0
 10
150.331
 20
122.571
 11
150.376
 21
122.002
  0
LINE
  8
0
 10
150.376
 20
122.002
 11
150.53
 21
121.217
  0
LINE
  8
0
 10
150.53
 20
121.217
 11
150.841
 21
120.238
  0
LINE
  8
0
 10
150.841
 20
120.238
 11
151.933
 21
120.094
  0
LINE
  8
0
 10
151.933
 20
120.094
 11
152.486
 21
120.96
  0
LINE
  8
0
 10
152.486
 20
120.96
 11
152.837
 21
121.678
  0
LINE
  8
0
 10
152.837
 20
121.678
 11
153.028
 21
122.216
  0
LINE
  8
0
 10
153.028
 20
122.216
 11
153.106
 21
122.549
  0
LINE
  8
0
 10
153.106
 20
122.549
 11
153.121
 21
122.663
  0
LINE
  8
0
 10
153.121
 20
122.663
 11
153.153
 21
123.302
  0
LINE
  8
0
 10
153.153
 20
123.302
 11
154.843
 21
123.302
  0
LINE
  8
0
 10
154.843
 20
123.302
 11
154.875
 21
122.663
  0
LINE
  8
0
 10
154.875
 20
122.663
 11
154.889
 21
122.549
  0
LINE
  8
0
 10
154.889
 20
122.549
 11
154.967
 21
122.216
  0
LINE
  8
0
 10
154.967
 20
122.216
 11
155.158
 21
121.678
  0
LINE
  8
0
 10
155.158
 20
121.678
 11
155.509
 21
120.96
  0
LINE
  8
0
 10
155.509
 20
120.96
 11
156.063
 21
120.094
  0
LINE
  8
0
 10
156.063
 20
120.094
 11
157.155
 21
120.238
  0
LINE
  8
0
 10
153.542
 20
137.542
 11
153.041
 21
137.69
  0
LINE
  8
0
 10
153.041
 20
137.69
 11
152.582
 21
137.94
  0
LINE
  8
0
 10
152.582
 20
137.94
 11
152.184
 21
138.279
  0
LINE
  8
0
 10
152.184
 20
138.279
 11
151.866
 21
138.694
  0
LINE
  8
0
 10
151.866
 20
138.694
 11
151.641
 21
139.165
  0
LINE
  8
0
 10
151.641
 20
139.165
 11
151.519
 21
139.674
  0
LINE
  8
0
 10
151.519
 20
139.674
 11
151.505
 21
140.196
  0
LINE
  8
0
 10
151.505
 20
140.196
 11
151.601
 21
140.71
  0
LINE
  8
0
 10
151.601
 20
140.71
 11
151.801
 21
141.193
  0
LINE
  8
0
 10
151.801
 20
141.193
 11
152.097
 21
141.624
  0
LINE
  8
0
 10
152.097
 20
141.624
 11
152.476
 21
141.983
  0
LINE
  8
0
 10
152.476
 20
141.983
 11
152.921
 21
142.256
  0
LINE
  8
0
 10
152.921
 20
142.256
 11
153.414
 21
142.431
  0
LINE
  8
0
 10
153.414
 20
142.431
 11
153.932
 21
142.499
  0
LINE
  8
0
 10
153.932
 20
142.499
 11
154.453
 21
142.458
  0
LINE
  8
0
 10
154.453
 20
142.458
 11
154.954
 21
142.31
  0
LINE
  8
0
 10
154.954
 20
142.31
 11
155.414
 21
142.06
  0
LINE
  8
0
 10
155.414
 20
142.06
 11
155.811
 21
141.721
  0
LINE
  8
0
 10
155.811
 20
141.721
 11
156.129
 21
141.306
  0
LINE
  8
0
 10
156.129
 20
141.306
 11
156.354
 21
140.835
  0
LINE
  8
0
 10
156.354
 20
140.835
 11
156.476
 21
140.326
  0
LINE
  8
0
 10
156.476
 20
140.326
 11
156.49
 21
139.804
  0
LINE
  8
0
 10
156.49
 20
139.804
 11
156.395
 21
139.29
  0
LINE
  8
0
 10
156.395
 20
139.29
 11
156.195
 21
138.807
  0
LINE
  8
0
 10
156.195
 20
138.807
 11
155.899
 21
138.376
  0
LINE
  8
0
 10
155.899
 20
138.376
 11
155.52
 21
138.017
  0
LINE
  8
0
 10
155.52
 20
138.017
 11
155.074
 21
137.744
  0
LINE
  8
0
 10
155.074
 20
137.744
 11
154.581
 21
137.569
  0
LINE
  8
0
 10
154.581
 20
137.569
 11
154.063
 21
137.501
  0
LINE
  8
0
 10
154.063
 20
137.501
 11
153.542
 21
137.542
  0
LINE
  8
0
 10
-40
 20
-52.2841
 11
-35
 21
-52.2841
  0
LINE
  8
0
 10
-35
 20
-52.2841
 11
-25
 21
-69.6046
  0
LINE
  8
0
 10
-25
 20
-69.6046
 11
-20
 21
-69.6046
  0
LINE
  8
0
 10
-20
 20
-69.6046
 11
-10
 21
-52.2841
  0
LINE
  8
0
 10
-10
 20
-52.2841
 11
-5
 21
-52.2841
  0
LINE
  8
0
 10
-5
 20
-52.2841
 11
5
 21
-69.6046
  0
LINE
  8
0
 10
5
 20
-69.6046
 11
10
 21
-69.6046
  0
LINE
  8
0
 10
10
 20
-69.6046
 11
20
 21
-52.2841
  0
LINE
  8
0
 10
20
 20
-52.2841
 11
25
 21
-52.2841
  0
LINE
  8
0
 10
25
 20
-52.2841
 11
35
 21
-69.6046
  0
LINE
  8
0
 10
35
 20
-69.6046
 11
40
 21
-69.6046
  0
LINE
  8
0
 10
40
 20
-69.6046
 11
50
 21
-52.2841
  0
LINE
  8
0
 10
50
 20
-52.2841
 11
55
 21
-52.2841
  0
LINE
  8
0
 10
55
 20
-52.2841
 11
65
 21
-69.6046
  0
LINE
  8
0
 10
65
 20
-69.6046
 11
70
 21
-69.6046
  0
LINE
  8
0
 10
70
 20
-69.6046
 11
75
 21
-60.9444
  0
LINE
  8
0
 10
75
 20
-60.9444
 11
232
 21
-60.9444
  0
LINE
  8
0
 10
232
 20
-60.9444
 11
232
 21
60.9444
  0
LINE
  8
0
 10
232
 20
60.9444
 11
223
 21
60.9444
  0
LINE
  8
0
 10
223
 20
60.9444
 11
223
 21
57.0444
  0
LINE
  8
0
 10
223
 20
57.0444
 11
213
 21
57.0444
  0
LINE
  8
0
 10
213
 20
57.0444
 11
213
 21
60.9444
  0
LINE
  8
0
 10
213
 20
60.9444
 11
135.124
 21
60.9444
  0
LINE
  8
0
 10
135.124
 20
60.9444
 11
135.124
 21
51.9444
  0
LINE
  8
0
 10
135.124
 20
51.9444
 11
131.124
 21
51.9444
  0
LINE
  8
0
 10
131.124
 20
51.9444
 11
131.124
 21
60.9444
  0
LINE
  8
0
 10
131.124
 20
60.9444
 11
122.024
 21
60.9444
  0
LINE
  8
0
 10
122.024
 20
60.9444
 11
122.024
 21
57.0444
  0
LINE
  8
0
 10
122.024
 20
57.0444
 11
112.024
 21
57.0444
  0
LINE
  8
0
 10
112.024
 20
57.0444
 11
112.024
 21
60.9444
  0
LINE
  8
0
 10
112.024
 20
60.9444
 11
-232
 21
60.9444
  0
LINE
  8
0
 10
-232
 20
60.9444
 11
-232
 21
45.6296
  0
LINE
  8
0
 10
-232
 20
45.6296
 11
-228.1
 21
45.6296
  0
LINE
  8
0
 10
-228.1
 20
45.6296
 11
-228.1
 21
35.6296
  0
LINE
  8
0
 10
-228.1
 20
35.6296
 11
-232
 21
35.6296
  0
LINE
  8
0
 10
-232
 20
35.6296
 11
-232
 21
-35.6296
  0
LINE
  8
0
 10
-232
 20
-35.6296
 11
-228.1
 21
-35.6296
  0
LINE
  8
0
 10
-228.1
 20
-35.6296
 11
-228.1
 21
-45.6296
  0
LINE
  8
0
 10
-228.1
 20
-45.6296
 11
-232
 21
-45.6296
  0
LINE
  8
0
 10
-232
 20
-45.6296
 11
-232
 21
-60.9444
  0
LINE
  8
0
 10
-232
 20
-60.9444
 11
-75
 21
-60.9444
  0
LINE
  8
0
 10
-75
 20
-60.9444
 11
-70
 21
-52.2841
  0
LINE
  8
0
 10
-70
 20
-52.2841
 11
-65
 21
-52.2841
  0
LINE
  8
0
 10
-65
 20
-52.2841
 11
-55
 21
-69.6046
  0
LINE
  8
0
 10
-55
 20
-69.6046
 11
-50
 21
-69.6046
  0
LINE
  8
0
 10
-50
 20
-69.6046
 11
-40
 21
-52.2841
  0
LINE
  8
0
 10
216.883
 20
10.3363
 11
226.845
 21
11.2078
  0
LINE
  8
0
 10
226.845
 20
11.2078
 11
227.193
 21
7.22307
  0
LINE
  8
0
 10
227.193
 20
7.22307
 11
217.231
 21
6.3515
  0
LINE
  8
0
 10
217.231
 20
6.3515
 11
216.883
 21
10.3363
  0
LINE
  8
0
 10
71.5241
 20
-2.38094
 11
81.486
 21
-1.50938
  0
LINE
  8
0
 10
81.486
 20
-1.50938
 11
81.8346
 21
-5.49414
  0
LINE
  8
0
 10
81.8346
 20
-5.49414
 11
71.8727
 21
-6.36571
  0
LINE
  8
0
 10
71.8727
 20
-6.36571
 11
71.5241
 21
-2.38094
  0
LINE
  8
0
 10
-73.8346
 20
-15.0982
 11
-63.8727
 21
-14.2266
  0
LINE
  8
0
 10
-63.8727
 20
-14.2266
 11
-63.524
 21
-18.2114
  0
LINE
  8
0
 10
-63.524
 20
-18.2114
 11
-73.486
 21
-19.0829
  0
LINE
  8
0
 10
-73.486
 20
-19.0829
 11
-73.8346
 21
-15.0982
  0
LINE
  8
0
 10
-219.193
 20
-27.8154
 11
-209.231
 21
-26.9439
  0
LINE
  8
0
 10
-209.231
 20
-26.9439
 11
-208.883
 21
-30.9286
  0
LINE
  8
0
 10
-208.883
 20
-30.9286
 11
-218.845
 21
-31.8002
  0
LINE
  8
0
 10
-218.845
 20
-31.8002
 11
-219.193
 21
-27.8154
  0
LINE
  8
0
 10
-45.4879
 20
-205
 11
45.4879
 21
-205
  0
LINE
  8
0
 10
45.4879
 20
-205
 11
45.4879
 21
-209
  0
LINE
  8
0
 10
45.4879
 20
-209
 11
55.4879
 21
-209
  0
LINE
  8
0
 10
55.4879
 20
-209
 11
55.4879
 21
-205
  0
LINE
  8
0
 10
55.4879
 20
-205
 11
60.4879
 21
-205
  0
LINE
  8
0
 10
60.4879
 20
-205
 11
60.4879
 21
-166.667
  0
LINE
  8
0
 10
60.4879
 20
-166.667
 11
64.4879
 21
-166.667
  0
LINE
  8
0
 10
64.4879
 20
-166.667
 11
64.4879
 21
-156.667
  0
LINE
  8
0
 10
64.4879
 20
-156.667
 11
60.4879
 21
-156.667
  0
LINE
  8
0
 10
60.4879
 20
-156.667
 11
60.4879
 21
-123.333
  0
LINE
  8
0
 10
60.4879
 20
-123.333
 11
64.4879
 21
-123.333
  0
LINE
  8
0
 10
64.4879
 20
-123.333
 11
64.4879
 21
-113.333
  0
LINE
  8
0
 10
64.4879
 20
-113.333
 11
60.4879
 21
-113.333
  0
LINE
  8
0
 10
60.4879
 20
-113.333
 11
60.4879
 21
-75
  0
LINE
  8
0
 10
60.4879
 20
-75
 11
55.4879
 21
-75
  0
LINE
  8
0
 10
55.4879
 20
-75
 11
55.4879
 21
-71
  0
LINE
  8
0
 10
55.4879
 20
-71
 11
45.4879
 21
-71
  0
LINE
  8
0
 10
45.4879
 20
-71
 11
45.4879
 21
-75
  0
LINE
  8
0
 10
45.4879
 20
-75
 11
-45.4879
 21
-75
  0
LINE
  8
0
 10
-45.4879
 20
-75
 11
-45.4879
 21
-71
  0
LINE
  8
0
 10
-45.4879
 20
-71
 11
-55.4879
 21
-71
  0
LINE
  8
0
 10
-55.4879
 20
-71
 11
-55.4879
 21
-75
  0
LINE
  8
0
 10
-55.4879
 20
-75
 11
-60.4879
 21
-75
  0
LINE
  8
0
 10
-60.4879
 20
-75
 11
-60.4879
 21
-205
  0
LINE
  8
0
 10
-60.4879
 20
-205
 11
-55.4879
 21
-205
  0
LINE
  8
0
 10
-55.4879
 20
-205
 11
-55.4879
 21
-209
  0
LINE
  8
0
 10
-55.4879
 20
-209
 11
-45.4879
 21
-209
  0
LINE
  8
0
 10
-45.4879
 20
-209
 11
-45.4879
 21
-205
  0
LINE
  8
0
 10
4.98848
 20
-92
 11
4.98848
 21
-88
  0
LINE
  8
0
 10
4.98848
 20
-88
 11
14.9885
 21
-88
  0
LINE
  8
0
 10
14.9885
 20
-88
 11
14.9885
 21
-92
  0
LINE
  8
0
 10
14.9885
 20
-92
 11
4.98848
 21
-92
  0
LINE
  8
0
 10
22.9885
 20
-92
 11
22.9885
 21
-88
  0
LINE
  8
0
 10
22.9885
 20
-88
 11
32.9885
 21
-88
  0
LINE
  8
0
 10
32.9885
 20
-88
 11
32.9885
 21
-92
  0
LINE
  8
0
 10
32.9885
 20
-92
 11
22.9885
 21
-92
  0
LINE
  8
0
 10
-23.2879
 20
-121
 11
-23.2879
 21
-117
  0
LINE
  8
0
 10
-23.2879
 20
-117
 11
-13.2879
 21
-117
  0
LINE
  8
0
 10
-13.2879
 20
-117
 11
-13.2879
 21
-121
  0
LINE
  8
0
 10
-13.2879
 20
-121
 11
-23.2879
 21
-121
  0
LINE
  8
0
 10
-55.4879
 20
-121
 11
-55.4879
 21
-117
  0
LINE
  8
0
 10
-55.4879
 20
-117
 11
-45.4879
 21
-117
  0
LINE
  8
0
 10
-45.4879
 20
-117
 11
-45.4879
 21
-121
  0
LINE
  8
0
 10
-45.4879
 20
-121
 11
-55.4879
 21
-121
  0
LINE
  8
0
 10
4.98848
 20
-142
 11
4.98848
 21
-138
  0
LINE
  8
0
 10
4.98848
 20
-138
 11
14.9885
 21
-138
  0
LINE
  8
0
 10
14.9885
 20
-138
 11
14.9885
 21
-142
  0
LINE
  8
0
 10
14.9885
 20
-142
 11
4.98848
 21
-142
  0
LINE
  8
0
 10
22.9885
 20
-142
 11
22.9885
 21
-138
  0
LINE
  8
0
 10
22.9885
 20
-138
 11
32.9885
 21
-138
  0
LINE
  8
0
 10
32.9885
 20
-138
 11
32.9885
 21
-142
  0
LINE
  8
0
 10
32.9885
 20
-142
 11
22.9885
 21
-142
  0
LINE
  8
0
 10
37.6548
 20
-188.7
 11
37.6548
 21
-178.7
  0
LINE
  8
0
 10
37.6548
 20
-178.7
 11
41.6548
 21
-178.7
  0
LINE
  8
0
 10
41.6548
 20
-178.7
 11
41.6548
 21
-188.7
  0
LINE
  8
0
 10
41.6548
 20
-188.7
 11
37.6548
 21
-188.7
  0
LINE
  8
0
 10
47.6548
 20
-188.7
 11
47.6548
 21
-178.7
  0
LINE
  8
0
 10
47.6548
 20
-178.7
 11
51.6548
 21
-178.7
  0
LINE
  8
0
 10
51.6548
 20
-178.7
 11
51.6548
 21
-188.7
  0
LINE
  8
0
 10
51.6548
 20
-188.7
 11
47.6548
 21
-188.7
  0
LINE
  8
0
 10
22.9885
 20
-192
 11
22.9885
 21
-188
  0
LINE
  8
0
 10
22.9885
 20
-188
 11
32.9885
 21
-188
  0
LINE
  8
0
 10
32.9885
 20
-188
 11
32.9885
 21
-192
  0
LINE
  8
0
 10
32.9885
 20
-192
 11
22.9885
 21
-192
  0
LINE
  8
0
 10
4.98848
 20
-192
 11
4.98848
 21
-188
  0
LINE
  8
0
 10
4.98848
 20
-188
 11
14.9885
 21
-188
  0
LINE
  8
0
 10
14.9885
 20
-188
 11
14.9885
 21
-192
  0
LINE
  8
0
 10
14.9885
 20
-192
 11
4.98848
 21
-192
  0
LINE
  8
0
 10
-285.63
 20
-205
 11
-214.37
 21
-205
  0
LINE
  8
0
 10
-214.37
 20
-205
 11
-214.37
 21
-209
  0
LINE
  8
0
 10
-214.37
 20
-209
 11
-204.37
 21
-209
  0
LINE
  8
0
 10
-204.37
 20
-209
 11
-204.37
 21
-205
  0
LINE
  8
0
 10
-204.37
 20
-205
 11
-189.056
 21
-205
  0
LINE
  8
0
 10
-189.056
 20
-205
 11
-189.056
 21
-170
  0
LINE
  8
0
 10
-189.056
 20
-170
 11
-180.395
 21
-165
  0
LINE
  8
0
 10
-180.395
 20
-165
 11
-180.395
 21
-160
  0
LINE
  8
0
 10
-180.395
 20
-160
 11
-197.716
 21
-150
  0
LINE
  8
0
 10
-197.716
 20
-150
 11
-197.716
 21
-145
  0
LINE
  8
0
 10
-197.716
 20
-145
 11
-180.395
 21
-135
  0
LINE
  8
0
 10
-180.395
 20
-135
 11
-180.395
 21
-130
  0
LINE
  8
0
 10
-180.395
 20
-130
 11
-197.716
 21
-120
  0
LINE
  8
0
 10
-197.716
 20
-120
 11
-197.716
 21
-115
  0
LINE
  8
0
 10
-197.716
 20
-115
 11
-189.056
 21
-110
  0
LINE
  8
0
 10
-189.056
 20
-110
 11
-189.056
 21
-75
  0
LINE
  8
0
 10
-189.056
 20
-75
 11
-204.37
 21
-75
  0
LINE
  8
0
 10
-204.37
 20
-75
 11
-204.37
 21
-71
  0
LINE
  8
0
 10
-204.37
 20
-71
 11
-214.37
 21
-71
  0
LINE
  8
0
 10
-214.37
 20
-71
 11
-214.37
 21
-75
  0
LINE
  8
0
 10
-214.37
 20
-75
 11
-285.63
 21
-75
  0
LINE
  8
0
 10
-285.63
 20
-75
 11
-285.63
 21
-71
  0
LINE
  8
0
 10
-285.63
 20
-71
 11
-295.63
 21
-71
  0
LINE
  8
0
 10
-295.63
 20
-71
 11
-295.63
 21
-75
  0
LINE
  8
0
 10
-295.63
 20
-75
 11
-310.944
 21
-75
  0
LINE
  8
0
 10
-310.944
 20
-75
 11
-310.944
 21
-205
  0
LINE
  8
0
 10
-310.944
 20
-205
 11
-295.63
 21
-205
  0
LINE
  8
0
 10
-295.63
 20
-205
 11
-295.63
 21
-209
  0
LINE
  8
0
 10
-295.63
 20
-209
 11
-285.63
 21
-209
  0
LINE
  8
0
 10
-285.63
 20
-209
 11
-285.63
 21
-205
  0
LINE
  8
0
 10
-120.647
 20
-190
 11
-110.647
 21
-190
  0
LINE
  8
0
 10
-110.647
 20
-190
 11
-110.647
 21
-205
  0
LINE
  8
0
 10
-110.647
 20
-205
 11
-75.3534
 21
-205
  0
LINE
  8
0
 10
-75.3534
 20
-205
 11
-75.3534
 21
-75
  0
LINE
  8
0
 10
-75.3534
 20
-75
 11
-124.647
 21
-75
  0
LINE
  8
0
 10
-124.647
 20
-75
 11
-124.647
 21
-113.333
  0
LINE
  8
0
 10
-124.647
 20
-113.333
 11
-120.647
 21
-113.333
  0
LINE
  8
0
 10
-120.647
 20
-113.333
 11
-120.647
 21
-123.333
  0
LINE
  8
0
 10
-120.647
 20
-123.333
 11
-124.647
 21
-123.333
  0
LINE
  8
0
 10
-124.647
 20
-123.333
 11
-124.647
 21
-156.667
  0
LINE
  8
0
 10
-124.647
 20
-156.667
 11
-120.647
 21
-156.667
  0
LINE
  8
0
 10
-120.647
 20
-156.667
 11
-120.647
 21
-166.667
  0
LINE
  8
0
 10
-120.647
 20
-166.667
 11
-124.647
 21
-166.667
  0
LINE
  8
0
 10
-124.647
 20
-166.667
 11
-124.647
 21
-205
  0
LINE
  8
0
 10
-124.647
 20
-205
 11
-120.647
 21
-205
  0
LINE
  8
0
 10
-120.647
 20
-205
 11
-120.647
 21
-190
  0
LINE
  8
0
 10
-101.307
 20
-152.432
 11
-103.863
 21
-151.888
  0
LINE
  8
0
 10
-103.863
 20
-151.888
 11
-106.25
 21
-150.825
  0
LINE
  8
0
 10
-106.25
 20
-150.825
 11
-108.364
 21
-149.289
  0
LINE
  8
0
 10
-108.364
 20
-149.289
 11
-110.113
 21
-147.347
  0
LINE
  8
0
 10
-110.113
 20
-147.347
 11
-111.419
 21
-145.084
  0
LINE
  8
0
 10
-111.419
 20
-145.084
 11
-112.227
 21
-142.599
  0
LINE
  8
0
 10
-112.227
 20
-142.599
 11
-112.5
 21
-140
  0
LINE
  8
0
 10
-112.5
 20
-140
 11
-112.227
 21
-137.401
  0
LINE
  8
0
 10
-112.227
 20
-137.401
 11
-111.419
 21
-134.916
  0
LINE
  8
0
 10
-111.419
 20
-134.916
 11
-110.113
 21
-132.653
  0
LINE
  8
0
 10
-110.113
 20
-132.653
 11
-108.364
 21
-130.711
  0
LINE
  8
0
 10
-108.364
 20
-130.711
 11
-106.25
 21
-129.175
  0
LINE
  8
0
 10
-106.25
 20
-129.175
 11
-103.863
 21
-128.112
  0
LINE
  8
0
 10
-103.863
 20
-128.112
 11
-101.307
 21
-127.568
  0
LINE
  8
0
 10
-101.307
 20
-127.568
 11
-98.6934
 21
-127.568
  0
LINE
  8
0
 10
-98.6934
 20
-127.568
 11
-96.1373
 21
-128.112
  0
LINE
  8
0
 10
-96.1373
 20
-128.112
 11
-93.75
 21
-129.175
  0
LINE
  8
0
 10
-93.75
 20
-129.175
 11
-91.6359
 21
-130.711
  0
LINE
  8
0
 10
-91.6359
 20
-130.711
 11
-89.8873
 21
-132.653
  0
LINE
  8
0
 10
-89.8873
 20
-132.653
 11
-88.5807
 21
-134.916
  0
LINE
  8
0
 10
-88.5807
 20
-134.916
 11
-87.7732
 21
-137.401
  0
LINE
  8
0
 10
-87.7732
 20
-137.401
 11
-87.5
 21
-140
  0
LINE
  8
0
 10
-87.5
 20
-140
 11
-87.7732
 21
-142.599
  0
LINE
  8
0
 10
-87.7732
 20
-142.599
 11
-88.5807
 21
-145.084
  0
LINE
  8
0
 10
-88.5807
 20
-145.084
 11
-89.8873
 21
-147.347
  0
LINE
  8
0
 10
-89.8873
 20
-147.347
 11
-91.6359
 21
-149.289
  0
LINE
  8
0
 10
-91.6359
 20
-149.289
 11
-93.75
 21
-150.825
  0
LINE
  8
0
 10
-93.75
 20
-150.825
 11
-96.1373
 21
-151.888
  0
LINE
  8
0
 10
-96.1373
 20
-151.888
 11
-98.6934
 21
-152.432
  0
LINE
  8
0
 10
-98.6934
 20
-152.432
 11
-101.307
 21
-152.432
  0
LINE
  8
0
 10
221.1
 20
-114.9
 11
211.1
 21
-114.9
  0
LINE
  8
0
 10
211.1
 20
-114.9
 11
211.1
 21
-118.9
  0
LINE
  8
0
 10
211.1
 20
-118.9
 11
188.9
 21
-118.9
  0
LINE
  8
0
 10
188.9
 20
-118.9
 11
188.9
 21
-114.9
  0
LINE
  8
0
 10
188.9
 20
-114.9
 11
178.9
 21
-114.9
  0
LINE
  8
0
 10
178.9
 20
-114.9
 11
178.9
 21
-161.1
  0
LINE
  8
0
 10
178.9
 20
-161.1
 11
221.1
 21
-161.1
  0
LINE
  8
0
 10
221.1
 20
-161.1
 11
221.1
 21
-114.9
  0
LINE
  8
0
 10
215.156
 20
-126.7
 11
214.687
 21
-126.57
  0
LINE
  8
0
 10
214.687
 20
-126.57
 11
214.257
 21
-126.342
  0
LINE
  8
0
 10
214.257
 20
-126.342
 11
213.887
 21
-126.027
  0
LINE
  8
0
 10
213.887
 20
-126.027
 11
213.592
 21
-125.64
  0
LINE
  8
0
 10
213.592
 20
-125.64
 11
213.388
 21
-125.198
  0
LINE
  8
0
 10
213.388
 20
-125.198
 11
213.283
 21
-124.723
  0
LINE
  8
0
 10
213.283
 20
-124.723
 11
213.283
 21
-124.237
  0
LINE
  8
0
 10
213.283
 20
-124.237
 11
213.388
 21
-123.762
  0
LINE
  8
0
 10
213.388
 20
-123.762
 11
213.592
 21
-123.32
  0
LINE
  8
0
 10
213.592
 20
-123.32
 11
213.887
 21
-122.933
  0
LINE
  8
0
 10
213.887
 20
-122.933
 11
214.257
 21
-122.618
  0
LINE
  8
0
 10
214.257
 20
-122.618
 11
214.687
 21
-122.39
  0
LINE
  8
0
 10
214.687
 20
-122.39
 11
215.156
 21
-122.26
  0
LINE
  8
0
 10
215.156
 20
-122.26
 11
215.642
 21
-122.233
  0
LINE
  8
0
 10
215.642
 20
-122.233
 11
216.122
 21
-122.312
  0
LINE
  8
0
 10
216.122
 20
-122.312
 11
216.574
 21
-122.492
  0
LINE
  8
0
 10
216.574
 20
-122.492
 11
216.977
 21
-122.765
  0
LINE
  8
0
 10
216.977
 20
-122.765
 11
217.311
 21
-123.118
  0
LINE
  8
0
 10
217.311
 20
-123.118
 11
217.562
 21
-123.535
  0
LINE
  8
0
 10
217.562
 20
-123.535
 11
217.717
 21
-123.996
  0
LINE
  8
0
 10
217.717
 20
-123.996
 11
217.77
 21
-124.48
  0
LINE
  8
0
 10
217.77
 20
-124.48
 11
217.717
 21
-124.964
  0
LINE
  8
0
 10
217.717
 20
-124.964
 11
217.562
 21
-125.425
  0
LINE
  8
0
 10
217.562
 20
-125.425
 11
217.311
 21
-125.842
  0
LINE
  8
0
 10
217.311
 20
-125.842
 11
216.977
 21
-126.195
  0
LINE
  8
0
 10
216.977
 20
-126.195
 11
216.574
 21
-126.468
  0
LINE
  8
0
 10
216.574
 20
-126.468
 11
216.122
 21
-126.648
  0
LINE
  8
0
 10
216.122
 20
-126.648
 11
215.642
 21
-126.727
  0
LINE
  8
0
 10
215.642
 20
-126.727
 11
215.156
 21
-126.7
  0
LINE
  8
0
 10
184.116
 20
-126.7
 11
183.647
 21
-126.57
  0
LINE
  8
0
 10
183.647
 20
-126.57
 11
183.217
 21
-126.342
  0
LINE
  8
0
 10
183.217
 20
-126.342
 11
182.847
 21
-126.027
  0
LINE
  8
0
 10
182.847
 20
-126.027
 11
182.552
 21
-125.64
  0
LINE
  8
0
 10
182.552
 20
-125.64
 11
182.348
 21
-125.198
  0
LINE
  8
0
 10
182.348
 20
-125.198
 11
182.243
 21
-124.723
  0
LINE
  8
0
 10
182.243
 20
-124.723
 11
182.243
 21
-124.237
  0
LINE
  8
0
 10
182.243
 20
-124.237
 11
182.348
 21
-123.762
  0
LINE
  8
0
 10
182.348
 20
-123.762
 11
182.552
 21
-123.32
  0
LINE
  8
0
 10
182.552
 20
-123.32
 11
182.847
 21
-122.933
  0
LINE
  8
0
 10
182.847
 20
-122.933
 11
183.217
 21
-122.618
  0
LINE
  8
0
 10
183.217
 20
-122.618
 11
183.647
 21
-122.39
  0
LINE
  8
0
 10
183.647
 20
-122.39
 11
184.116
 21
-122.26
  0
LINE
  8
0
 10
184.116
 20
-122.26
 11
184.602
 21
-122.233
  0
LINE
  8
0
 10
184.602
 20
-122.233
 11
185.082
 21
-122.312
  0
LINE
  8
0
 10
185.082
 20
-122.312
 11
185.534
 21
-122.492
  0
LINE
  8
0
 10
185.534
 20
-122.492
 11
185.937
 21
-122.765
  0
LINE
  8
0
 10
185.937
 20
-122.765
 11
186.271
 21
-123.118
  0
LINE
  8
0
 10
186.271
 20
-123.118
 11
186.522
 21
-123.535
  0
LINE
  8
0
 10
186.522
 20
-123.535
 11
186.677
 21
-123.996
  0
LINE
  8
0
 10
186.677
 20
-123.996
 11
186.73
 21
-124.48
  0
LINE
  8
0
 10
186.73
 20
-124.48
 11
186.677
 21
-124.964
  0
LINE
  8
0
 10
186.677
 20
-124.964
 11
186.522
 21
-125.425
  0
LINE
  8
0
 10
186.522
 20
-125.425
 11
186.271
 21
-125.842
  0
LINE
  8
0
 10
186.271
 20
-125.842
 11
185.937
 21
-126.195
  0
LINE
  8
0
 10
185.937
 20
-126.195
 11
185.534
 21
-126.468
  0
LINE
  8
0
 10
185.534
 20
-126.468
 11
185.082
 21
-126.648
  0
LINE
  8
0
 10
185.082
 20
-126.648
 11
184.602
 21
-126.727
  0
LINE
  8
0
 10
184.602
 20
-126.727
 11
184.116
 21
-126.7
  0
LINE
  8
0
 10
198.746
 20
-151.934
 11
196.292
 21
-151.413
  0
LINE
  8
0
 10
196.292
 20
-151.413
 11
194
 21
-150.392
  0
LINE
  8
0
 10
194
 20
-150.392
 11
191.97
 21
-148.918
  0
LINE
  8
0
 10
191.97
 20
-148.918
 11
190.292
 21
-147.053
  0
LINE
  8
0
 10
190.292
 20
-147.053
 11
189.037
 21
-144.881
  0
LINE
  8
0
 10
189.037
 20
-144.881
 11
188.262
 21
-142.495
  0
LINE
  8
0
 10
188.262
 20
-142.495
 11
188
 21
-140
  0
LINE
  8
0
 10
188
 20
-140
 11
188.262
 21
-137.505
  0
LINE
  8
0
 10
188.262
 20
-137.505
 11
189.037
 21
-135.119
  0
LINE
  8
0
 10
189.037
 20
-135.119
 11
190.292
 21
-132.947
  0
LINE
  8
0
 10
190.292
 20
-132.947
 11
191.97
 21
-131.082
  0
LINE
  8
0
 10
191.97
 20
-131.082
 11
194
 21
-129.608
  0
LINE
  8
0
 10
194
 20
-129.608
 11
196.292
 21
-128.587
  0
LINE
  8
0
 10
196.292
 20
-128.587
 11
198.746
 21
-128.066
  0
LINE
  8
0
 10
198.746
 20
-128.066
 11
201.254
 21
-128.066
  0
LINE
  8
0
 10
201.254
 20
-128.066
 11
203.708
 21
-128.587
  0
LINE
  8
0
 10
203.708
 20
-128.587
 11
206
 21
-129.608
  0
LINE
  8
0
 10
206
 20
-129.608
 11
208.03
 21
-131.082
  0
LINE
  8
0
 10
208.03
 20
-131.082
 11
209.708
 21
-132.947
  0
LINE
  8
0
 10
209.708
 20
-132.947
 11
210.963
 21
-135.119
  0
LINE
  8
0
 10
210.963
 20
-135.119
 11
211.738
 21
-137.505
  0
LINE
  8
0
 10
211.738
 20
-137.505
 11
212
 21
-140
  0
LINE
  8
0
 10
212
 20
-140
 11
211.738
 21
-142.495
  0
LINE
  8
0
 10
211.738
 20
-142.495
 11
210.963
 21
-144.881
  0
LINE
  8
0
 10
210.963
 20
-144.881
 11
209.708
 21
-147.053
  0
LINE
  8
0
 10
209.708
 20
-147.053
 11
208.03
 21
-148.918
  0
LINE
  8
0
 10
208.03
 20
-148.918
 11
206
 21
-150.392
  0
LINE
  8
0
 10
206
 20
-150.392
 11
203.708
 21
-151.413
  0
LINE
  8
0
 10
203.708
 20
-151.413
 11
201.254
 21
-151.934
  0
LINE
  8
0
 10
201.254
 20
-151.934
 11
198.746
 21
-151.934
  0
LINE
  8
0
 10
215.156
 20
-157.74
 11
214.687
 21
-157.61
  0
LINE
  8
0
 10
214.687
 20
-157.61
 11
214.257
 21
-157.382
  0
LINE
  8
0
 10
214.257
 20
-157.382
 11
213.887
 21
-157.067
  0
LINE
  8
0
 10
213.887
 20
-157.067
 11
213.592
 21
-156.68
  0
LINE
  8
0
 10
213.592
 20
-156.68
 11
213.388
 21
-156.238
  0
LINE
  8
0
 10
213.388
 20
-156.238
 11
213.283
 21
-155.763
  0
LINE
  8
0
 10
213.283
 20
-155.763
 11
213.283
 21
-155.277
  0
LINE
  8
0
 10
213.283
 20
-155.277
 11
213.388
 21
-154.802
  0
LINE
  8
0
 10
213.388
 20
-154.802
 11
213.592
 21
-154.36
  0
LINE
  8
0
 10
213.592
 20
-154.36
 11
213.887
 21
-153.973
  0
LINE
  8
0
 10
213.887
 20
-153.973
 11
214.257
 21
-153.658
  0
LINE
  8
0
 10
214.257
 20
-153.658
 11
214.687
 21
-153.43
  0
LINE
  8
0
 10
214.687
 20
-153.43
 11
215.156
 21
-153.3
  0
LINE
  8
0
 10
215.156
 20
-153.3
 11
215.642
 21
-153.273
  0
LINE
  8
0
 10
215.642
 20
-153.273
 11
216.122
 21
-153.352
  0
LINE
  8
0
 10
216.122
 20
-153.352
 11
216.574
 21
-153.532
  0
LINE
  8
0
 10
216.574
 20
-153.532
 11
216.977
 21
-153.805
  0
LINE
  8
0
 10
216.977
 20
-153.805
 11
217.311
 21
-154.158
  0
LINE
  8
0
 10
217.311
 20
-154.158
 11
217.562
 21
-154.575
  0
LINE
  8
0
 10
217.562
 20
-154.575
 11
217.717
 21
-155.036
  0
LINE
  8
0
 10
217.717
 20
-155.036
 11
217.77
 21
-155.52
  0
LINE
  8
0
 10
217.77
 20
-155.52
 11
217.717
 21
-156.004
  0
LINE
  8
0
 10
217.717
 20
-156.004
 11
217.562
 21
-156.465
  0
LINE
  8
0
 10
217.562
 20
-156.465
 11
217.311
 21
-156.882
  0
LINE
  8
0
 10
217.311
 20
-156.882
 11
216.977
 21
-157.235
  0
LINE
  8
0
 10
216.977
 20
-157.235
 11
216.574
 21
-157.508
  0
LINE
  8
0
 10
216.574
 20
-157.508
 11
216.122
 21
-157.688
  0
LINE
  8
0
 10
216.122
 20
-157.688
 11
215.642
 21
-157.767
  0
LINE
  8
0
 10
215.642
 20
-157.767
 11
215.156
 21
-157.74
  0
LINE
  8
0
 10
184.116
 20
-157.74
 11
183.647
 21
-157.61
  0
LINE
  8
0
 10
183.647
 20
-157.61
 11
183.217
 21
-157.382
  0
LINE
  8
0
 10
183.217
 20
-157.382
 11
182.847
 21
-157.067
  0
LINE
  8
0
 10
182.847
 20
-157.067
 11
182.552
 21
-156.68
  0
LINE
  8
0
 10
182.552
 20
-156.68
 11
182.348
 21
-156.238
  0
LINE
  8
0
 10
182.348
 20
-156.238
 11
182.243
 21
-155.763
  0
LINE
  8
0
 10
182.243
 20
-155.763
 11
182.243
 21
-155.277
  0
LINE
  8
0
 10
182.243
 20
-155.277
 11
182.348
 21
-154.802
  0
LINE
  8
0
 10
182.348
 20
-154.802
 11
182.552
 21
-154.36
  0
LINE
  8
0
 10
182.552
 20
-154.36
 11
182.847
 21
-153.973
  0
LINE
  8
0
 10
182.847
 20
-153.973
 11
183.217
 21
-153.658
  0
LINE
  8
0
 10
183.217
 20
-153.658
 11
183.647
 21
-153.43
  0
LINE
  8
0
 10
183.647
 20
-153.43
 11
184.116
 21
-153.3
  0
LINE
  8
0
 10
184.116
 20
-153.3
 11
184.602
 21
-153.273
  0
LINE
  8
0
 10
184.602
 20
-153.273
 11
185.082
 21
-153.352
  0
LINE
  8
0
 10
185.082
 20
-153.352
 11
185.534
 21
-153.532
  0
LINE
  8
0
 10
185.534
 20
-153.532
 11
185.937
 21
-153.805
  0
LINE
  8
0
 10
185.937
 20
-153.805
 11
186.271
 21
-154.158
  0
LINE
  8
0
 10
186.271
 20
-154.158
 11
186.522
 21
-154.575
  0
LINE
  8
0
 10
186.522
 20
-154.575
 11
186.677
 21
-155.036
  0
LINE
  8
0
 10
186.677
 20
-155.036
 11
186.73
 21
-155.52
  0
LINE
  8
0
 10
186.73
 20
-155.52
 11
186.677
 21
-156.004
  0
LINE
  8
0
 10
186.677
 20
-156.004
 11
186.522
 21
-156.465
  0
LINE
  8
0
 10
186.522
 20
-156.465
 11
186.271
 21
-156.882
  0
LINE
  8
0
 10
186.271
 20
-156.882
 11
185.937
 21
-157.235
  0
LINE
  8
0
 10
185.937
 20
-157.235
 11
185.534
 21
-157.508
  0
LINE
  8
0
 10
185.534
 20
-157.508
 11
185.082
 21
-157.688
  0
LINE
  8
0
 10
185.082
 20
-157.688
 11
184.602
 21
-157.767
  0
LINE
  8
0
 10
184.602
 20
-157.767
 11
184.116
 21
-157.74
  0
LINE
  8
0
 10
135.899
 20
-143.9
 11
137.198
 21
-143.763
  0
LINE
  8
0
 10
137.198
 20
-143.763
 11
138.441
 21
-143.36
  0
LINE
  8
0
 10
138.441
 20
-143.36
 11
139.573
 21
-142.706
  0
LINE
  8
0
 10
139.573
 20
-142.706
 11
140.544
 21
-141.832
  0
LINE
  8
0
 10
140.544
 20
-141.832
 11
141.312
 21
-140.775
  0
LINE
  8
0
 10
141.312
 20
-140.775
 11
141.843
 21
-139.581
  0
LINE
  8
0
 10
141.843
 20
-139.581
 11
142.115
 21
-138.303
  0
LINE
  8
0
 10
142.115
 20
-138.303
 11
142.115
 21
-136.997
  0
LINE
  8
0
 10
142.115
 20
-136.997
 11
141.843
 21
-135.719
  0
LINE
  8
0
 10
141.843
 20
-135.719
 11
141.312
 21
-134.525
  0
LINE
  8
0
 10
141.312
 20
-134.525
 11
140.544
 21
-133.468
  0
LINE
  8
0
 10
140.544
 20
-133.468
 11
139.573
 21
-132.594
  0
LINE
  8
0
 10
139.573
 20
-132.594
 11
138.441
 21
-131.94
  0
LINE
  8
0
 10
138.441
 20
-131.94
 11
137.198
 21
-131.537
  0
LINE
  8
0
 10
137.198
 20
-131.537
 11
135.899
 21
-131.4
  0
LINE
  8
0
 10
135.899
 20
-131.4
 11
100
 21
-131.4
  0
LINE
  8
0
 10
100
 20
-131.4
 11
100
 21
-136.4
  0
LINE
  8
0
 10
100
 20
-136.4
 11
96
 21
-136.4
  0
LINE
  8
0
 10
96
 20
-136.4
 11
96
 21
-146.4
  0
LINE
  8
0
 10
96
 20
-146.4
 11
100
 21
-146.4
  0
LINE
  8
0
 10
100
 20
-146.4
 11
100
 21
-151.4
  0
LINE
  8
0
 10
100
 20
-151.4
 11
135.899
 21
-143.9
  0
LINE
  8
0
 10
135.421
 20
-138.805
 11
135.015
 21
-138.534
  0
LINE
  8
0
 10
135.015
 20
-138.534
 11
134.744
 21
-138.128
  0
LINE
  8
0
 10
134.744
 20
-138.128
 11
134.649
 21
-137.65
  0
LINE
  8
0
 10
134.649
 20
-137.65
 11
134.744
 21
-137.172
  0
LINE
  8
0
 10
134.744
 20
-137.172
 11
135.015
 21
-136.766
  0
LINE
  8
0
 10
135.015
 20
-136.766
 11
135.421
 21
-136.495
  0
LINE
  8
0
 10
135.421
 20
-136.495
 11
135.899
 21
-136.4
  0
LINE
  8
0
 10
135.899
 20
-136.4
 11
136.377
 21
-136.495
  0
LINE
  8
0
 10
136.377
 20
-136.495
 11
136.783
 21
-136.766
  0
LINE
  8
0
 10
136.783
 20
-136.766
 11
137.054
 21
-137.172
  0
LINE
  8
0
 10
137.054
 20
-137.172
 11
137.149
 21
-137.65
  0
LINE
  8
0
 10
137.149
 20
-137.65
 11
137.054
 21
-138.128
  0
LINE
  8
0
 10
137.054
 20
-138.128
 11
136.783
 21
-138.534
  0
LINE
  8
0
 10
136.783
 20
-138.534
 11
136.377
 21
-138.805
  0
LINE
  8
0
 10
136.377
 20
-138.805
 11
135.899
 21
-138.9
  0
LINE
  8
0
 10
135.899
 20
-138.9
 11
135.421
 21
-138.805
  0
LINE
  8
0
 10
125.821
 20
-138.805
 11
125.415
 21
-138.534
  0
LINE
  8
0
 10
125.415
 20
-138.534
 11
125.144
 21
-138.128
  0
LINE
  8
0
 10
125.144
 20
-138.128
 11
125.049
 21
-137.65
  0
LINE
  8
0
 10
125.049
 20
-137.65
 11
125.144
 21
-137.172
  0
LINE
  8
0
 10
125.144
 20
-137.172
 11
125.415
 21
-136.766
  0
LINE
  8
0
 10
125.415
 20
-136.766
 11
125.821
 21
-136.495
  0
LINE
  8
0
 10
125.821
 20
-136.495
 11
126.299
 21
-136.4
  0
LINE
  8
0
 10
126.299
 20
-136.4
 11
126.777
 21
-136.495
  0
LINE
  8
0
 10
126.777
 20
-136.495
 11
127.183
 21
-136.766
  0
LINE
  8
0
 10
127.183
 20
-136.766
 11
127.454
 21
-137.172
  0
LINE
  8
0
 10
127.454
 20
-137.172
 11
127.549
 21
-137.65
  0
LINE
  8
0
 10
127.549
 20
-137.65
 11
127.454
 21
-138.128
  0
LINE
  8
0
 10
127.454
 20
-138.128
 11
127.183
 21
-138.534
  0
LINE
  8
0
 10
127.183
 20
-138.534
 11
126.777
 21
-138.805
  0
LINE
  8
0
 10
126.777
 20
-138.805
 11
126.299
 21
-138.9
  0
LINE
  8
0
 10
126.299
 20
-138.9
 11
125.821
 21
-138.805
  0
LINE
  8
0
 10
302.472
 20
-188.707
 11
304
 21
-188.027
  0
LINE
  8
0
 10
304
 20
-188.027
 11
305.353
 21
-187.044
  0
LINE
  8
0
 10
305.353
 20
-187.044
 11
306.472
 21
-185.801
  0
LINE
  8
0
 10
306.472
 20
-185.801
 11
307.308
 21
-184.353
  0
LINE
  8
0
 10
307.308
 20
-184.353
 11
307.825
 21
-182.762
  0
LINE
  8
0
 10
307.825
 20
-182.762
 11
308
 21
-181.099
  0
LINE
  8
0
 10
308
 20
-181.099
 11
314
 21
-140
  0
LINE
  8
0
 10
314
 20
-140
 11
314
 21
-136
  0
LINE
  8
0
 10
314
 20
-136
 11
304
 21
-136
  0
LINE
  8
0
 10
304
 20
-136
 11
304
 21
-140
  0
LINE
  8
0
 10
304
 20
-140
 11
296
 21
-140
  0
LINE
  8
0
 10
296
 20
-140
 11
296
 21
-136
  0
LINE
  8
0
 10
296
 20
-136
 11
286
 21
-136
  0
LINE
  8
0
 10
286
 20
-136
 11
286
 21
-140
  0
LINE
  8
0
 10
286
 20
-140
 11
292
 21
-181.099
  0
LINE
  8
0
 10
292
 20
-181.099
 11
292.175
 21
-182.762
  0
LINE
  8
0
 10
292.175
 20
-182.762
 11
292.692
 21
-184.353
  0
LINE
  8
0
 10
292.692
 20
-184.353
 11
293.528
 21
-185.801
  0
LINE
  8
0
 10
293.528
 20
-185.801
 11
294.647
 21
-187.044
  0
LINE
  8
0
 10
294.647
 20
-187.044
 11
296
 21
-188.027
  0
LINE
  8
0
 10
296
 20
-188.027
 11
297.528
 21
-188.707
  0
LINE
  8
0
 10
297.528
 20
-188.707
 11
299.164
 21
-189.055
  0
LINE
  8
0
 10
299.164
 20
-189.055
 11
300.836
 21
-189.055
  0
LINE
  8
0
 10
300.836
 20
-189.055
 11
302.472
 21
-188.707
  0
LINE
  8
0
 10
299.582
 20
-185.077
 11
298.764
 21
-184.903
  0
LINE
  8
0
 10
298.764
 20
-184.903
 11
298
 21
-184.563
  0
LINE
  8
0
 10
298
 20
-184.563
 11
297.323
 21
-184.071
  0
LINE
  8
0
 10
297.323
 20
-184.071
 11
296.764
 21
-183.45
  0
LINE
  8
0
 10
296.764
 20
-183.45
 11
296.346
 21
-182.726
  0
LINE
  8
0
 10
296.346
 20
-182.726
 11
296.087
 21
-181.931
  0
LINE
  8
0
 10
296.087
 20
-181.931
 11
296
 21
-181.099
  0
LINE
  8
0
 10
296
 20
-181.099
 11
296.087
 21
-180.267
  0
LINE
  8
0
 10
296.087
 20
-180.267
 11
296.346
 21
-179.472
  0
LINE
  8
0
 10
296.346
 20
-179.472
 11
296.764
 21
-178.748
  0
LINE
  8
0
 10
296.764
 20
-178.748
 11
297.323
 21
-178.126
  0
LINE
  8
0
 10
297.323
 20
-178.126
 11
298
 21
-177.635
  0
LINE
  8
0
 10
298
 20
-177.635
 11
298.764
 21
-177.295
  0
LINE
  8
0
 10
298.764
 20
-177.295
 11
299.582
 21
-177.121
  0
LINE
  8
0
 10
299.582
 20
-177.121
 11
300.418
 21
-177.121
  0
LINE
  8
0
 10
300.418
 20
-177.121
 11
301.236
 21
-177.295
  0
LINE
  8
0
 10
301.236
 20
-177.295
 11
302
 21
-177.635
  0
LINE
  8
0
 10
302
 20
-177.635
 11
302.677
 21
-178.126
  0
LINE
  8
0
 10
302.677
 20
-178.126
 11
303.236
 21
-178.748
  0
LINE
  8
0
 10
303.236
 20
-178.748
 11
303.654
 21
-179.472
  0
LINE
  8
0
 10
303.654
 20
-179.472
 11
303.913
 21
-180.267
  0
LINE
  8
0
 10
303.913
 20
-180.267
 11
304
 21
-181.099
  0
LINE
  8
0
 10
304
 20
-181.099
 11
303.913
 21
-181.931
  0
LINE
  8
0
 10
303.913
 20
-181.931
 11
303.654
 21
-182.726
  0
LINE
  8
0
 10
303.654
 20
-182.726
 11
303.236
 21
-183.45
  0
LINE
  8
0
 10
303.236
 20
-183.45
 11
302.677
 21
-184.071
  0
LINE
  8
0
 10
302.677
 20
-184.071
 11
302
 21
-184.563
  0
LINE
  8
0
 10
302
 20
-184.563
 11
301.236
 21
-184.903
  0
LINE
  8
0
 10
301.236
 20
-184.903
 11
300.418
 21
-185.077
  0
LINE
  8
0
 10
300.418
 20
-185.077
 11
299.582
 21
-185.077
  0
ENDSEC
  0
SECTION
  2
OBJECTS
  0
DICTIONARY
  0
ENDSEC
  0
EOF
