  0
SECTION
  2
BLOCKS
  0
ENDSEC
  0
SECTION
  2
ENTITIES
  0
LINE
  8
0
 10
-442.742
 20
75
 11
-306.828
 21
75
  0
LINE
  8
0
 10
-306.828
 20
75
 11
-306.828
 21
71
  0
LINE
  8
0
 10
-306.828
 20
71
 11
-296.828
 21
71
  0
LINE
  8
0
 10
-296.828
 20
71
 11
-296.828
 21
75
  0
LINE
  8
0
 10
-296.828
 20
75
 11
-160.914
 21
75
  0
LINE
  8
0
 10
-160.914
 20
75
 11
-160.914
 21
71
  0
LINE
  8
0
 10
-160.914
 20
71
 11
-150.914
 21
71
  0
LINE
  8
0
 10
-150.914
 20
71
 11
-150.914
 21
75
  0
LINE
  8
0
 10
-150.914
 20
75
 11
-15
 21
75
  0
LINE
  8
0
 10
-15
 20
75
 11
-15
 21
71
  0
LINE
  8
0
 10
-15
 20
71
 11
-5
 21
71
  0
LINE
  8
0
 10
-5
 20
71
 11
-5
 21
75
  0
LINE
  8
0
 10
-5
 20
75
 11
0
 21
75
  0
LINE
  8
0
 10
0
 20
75
 11
0
 21
205
  0
LINE
  8
0
 10
0
 20
205
 11
-5
 21
205
  0
LINE
  8
0
 10
-5
 20
205
 11
-5
 21
209
  0
LINE
  8
0
 10
-5
 20
209
 11
-15
 21
209
  0
LINE
  8
0
 10
-15
 20
209
 11
-15
 21
205
  0
LINE
  8
0
 10
-15
 20
205
 11
-150.914
 21
205
  0
LINE
  8
0
 10
-150.914
 20
205
 11
-150.914
 21
209
  0
LINE
  8
0
 10
-150.914
 20
209
 11
-160.914
 21
209
  0
LINE
  8
0
 10
-160.914
 20
209
 11
-160.914
 21
205
  0
LINE
  8
0
 10
-160.914
 20
205
 11
-296.828
 21
205
  0
LINE
  8
0
 10
-296.828
 20
205
 11
-296.828
 21
209
  0
LINE
  8
0
 10
-296.828
 20
209
 11
-306.828
 21
209
  0
LINE
  8
0
 10
-306.828
 20
209
 11
-306.828
 21
205
  0
LINE
  8
0
 10
-306.828
 20
205
 11
-442.742
 21
205
  0
LINE
  8
0
 10
-442.742
 20
205
 11
-442.742
 21
209
  0
LINE
  8
0
 10
-442.742
 20
209
 11
-452.742
 21
209
  0
LINE
  8
0
 10
-452.742
 20
209
 11
-452.742
 21
205
  0
LINE
  8
0
 10
-452.742
 20
205
 11
-457.742
 21
205
  0
LINE
  8
0
 10
-457.742
 20
205
 11
-457.742
 21
75
  0
LINE
  8
0
 10
-457.742
 20
75
 11
-452.742
 21
75
  0
LINE
  8
0
 10
-452.742
 20
75
 11
-452.742
 21
71
  0
LINE
  8
0
 10
-452.742
 20
71
 11
-442.742
 21
71
  0
LINE
  8
0
 10
-442.742
 20
71
 11
-442.742
 21
75
  0
LINE
  8
0
 10
-85.9989
 20
166
 11
-85.9989
 21
174
  0
LINE
  8
0
 10
-85.9989
 20
174
 11
-4
 21
174
  0
LINE
  8
0
 10
-4
 20
174
 11
-4
 21
166
  0
LINE
  8
0
 10
-4
 20
166
 11
-85.9989
 21
166
  0
LINE
  8
0
 10
-85.9989
 20
106
 11
-85.9989
 21
114
  0
LINE
  8
0
 10
-85.9989
 20
114
 11
-4
 21
114
  0
LINE
  8
0
 10
-4
 20
114
 11
-4
 21
106
  0
LINE
  8
0
 10
-4
 20
106
 11
-85.9989
 21
106
  0
LINE
  8
0
 10
-40
 20
-52.2841
 11
-35
 21
-52.2841
  0
LINE
  8
0
 10
-35
 20
-52.2841
 11
-25
 21
-69.6046
  0
LINE
  8
0
 10
-25
 20
-69.6046
 11
-20
 21
-69.6046
  0
LINE
  8
0
 10
-20
 20
-69.6046
 11
-10
 21
-52.2841
  0
LINE
  8
0
 10
-10
 20
-52.2841
 11
-5
 21
-52.2841
  0
LINE
  8
0
 10
-5
 20
-52.2841
 11
5
 21
-69.6046
  0
LINE
  8
0
 10
5
 20
-69.6046
 11
10
 21
-69.6046
  0
LINE
  8
0
 10
10
 20
-69.6046
 11
20
 21
-52.2841
  0
LINE
  8
0
 10
20
 20
-52.2841
 11
25
 21
-52.2841
  0
LINE
  8
0
 10
25
 20
-52.2841
 11
35
 21
-69.6046
  0
LINE
  8
0
 10
35
 20
-69.6046
 11
40
 21
-69.6046
  0
LINE
  8
0
 10
40
 20
-69.6046
 11
50
 21
-52.2841
  0
LINE
  8
0
 10
50
 20
-52.2841
 11
55
 21
-52.2841
  0
LINE
  8
0
 10
55
 20
-52.2841
 11
65
 21
-69.6046
  0
LINE
  8
0
 10
65
 20
-69.6046
 11
70
 21
-69.6046
  0
LINE
  8
0
 10
70
 20
-69.6046
 11
75
 21
-60.9444
  0
LINE
  8
0
 10
75
 20
-60.9444
 11
232
 21
-60.9444
  0
LINE
  8
0
 10
232
 20
-60.9444
 11
232
 21
50.9444
  0
LINE
  8
0
 10
232
 20
50.9444
 11
228
 21
50.9444
  0
LINE
  8
0
 10
228
 20
50.9444
 11
228
 21
60.9444
  0
LINE
  8
0
 10
228
 20
60.9444
 11
223
 21
60.9444
  0
LINE
  8
0
 10
223
 20
60.9444
 11
223
 21
57.0444
  0
LINE
  8
0
 10
223
 20
57.0444
 11
213
 21
57.0444
  0
LINE
  8
0
 10
213
 20
57.0444
 11
213
 21
60.9444
  0
LINE
  8
0
 10
213
 20
60.9444
 11
122.024
 21
60.9444
  0
LINE
  8
0
 10
122.024
 20
60.9444
 11
122.024
 21
57.0444
  0
LINE
  8
0
 10
122.024
 20
57.0444
 11
112.024
 21
57.0444
  0
LINE
  8
0
 10
112.024
 20
57.0444
 11
112.024
 21
60.9444
  0
LINE
  8
0
 10
112.024
 20
60.9444
 11
-232
 21
60.9444
  0
LINE
  8
0
 10
-232
 20
60.9444
 11
-232
 21
45.6296
  0
LINE
  8
0
 10
-232
 20
45.6296
 11
-228.1
 21
45.6296
  0
LINE
  8
0
 10
-228.1
 20
45.6296
 11
-228.1
 21
35.6296
  0
LINE
  8
0
 10
-228.1
 20
35.6296
 11
-232
 21
35.6296
  0
LINE
  8
0
 10
-232
 20
35.6296
 11
-232
 21
-35.6296
  0
LINE
  8
0
 10
-232
 20
-35.6296
 11
-228.1
 21
-35.6296
  0
LINE
  8
0
 10
-228.1
 20
-35.6296
 11
-228.1
 21
-45.6296
  0
LINE
  8
0
 10
-228.1
 20
-45.6296
 11
-232
 21
-45.6296
  0
LINE
  8
0
 10
-232
 20
-45.6296
 11
-232
 21
-60.9444
  0
LINE
  8
0
 10
-232
 20
-60.9444
 11
-75
 21
-60.9444
  0
LINE
  8
0
 10
-75
 20
-60.9444
 11
-70
 21
-52.2841
  0
LINE
  8
0
 10
-70
 20
-52.2841
 11
-65
 21
-52.2841
  0
LINE
  8
0
 10
-65
 20
-52.2841
 11
-55
 21
-69.6046
  0
LINE
  8
0
 10
-55
 20
-69.6046
 11
-50
 21
-69.6046
  0
LINE
  8
0
 10
-50
 20
-69.6046
 11
-40
 21
-52.2841
  0
LINE
  8
0
 10
216.883
 20
10.3363
 11
226.845
 21
11.2078
  0
LINE
  8
0
 10
226.845
 20
11.2078
 11
227.193
 21
7.22307
  0
LINE
  8
0
 10
227.193
 20
7.22307
 11
217.231
 21
6.3515
  0
LINE
  8
0
 10
217.231
 20
6.3515
 11
216.883
 21
10.3363
  0
LINE
  8
0
 10
71.5241
 20
-2.38094
 11
81.486
 21
-1.50938
  0
LINE
  8
0
 10
81.486
 20
-1.50938
 11
81.8346
 21
-5.49414
  0
LINE
  8
0
 10
81.8346
 20
-5.49414
 11
71.8727
 21
-6.36571
  0
LINE
  8
0
 10
71.8727
 20
-6.36571
 11
71.5241
 21
-2.38094
  0
LINE
  8
0
 10
-73.8346
 20
-15.0982
 11
-63.8727
 21
-14.2266
  0
LINE
  8
0
 10
-63.8727
 20
-14.2266
 11
-63.524
 21
-18.2114
  0
LINE
  8
0
 10
-63.524
 20
-18.2114
 11
-73.486
 21
-19.0829
  0
LINE
  8
0
 10
-73.486
 20
-19.0829
 11
-73.8346
 21
-15.0982
  0
LINE
  8
0
 10
-219.193
 20
-27.8154
 11
-209.231
 21
-26.9439
  0
LINE
  8
0
 10
-209.231
 20
-26.9439
 11
-208.883
 21
-30.9286
  0
LINE
  8
0
 10
-208.883
 20
-30.9286
 11
-218.845
 21
-31.8002
  0
LINE
  8
0
 10
-218.845
 20
-31.8002
 11
-219.193
 21
-27.8154
  0
ENDSEC
  0
SECTION
  2
OBJECTS
  0
DICTIONARY
  0
ENDSEC
  0
EOF
